<?xml version="1.0" standalone="no"?>
<!DOCTYPE svg PUBLIC "-//W3C//DTD SVG 20010904//EN"
 "http://www.w3.org/TR/2001/REC-SVG-20010904/DTD/svg10.dtd">
<svg version="1.0" xmlns="http://www.w3.org/2000/svg"
 width="1254.000000pt" height="1254.000000pt" viewBox="0 0 1254.000000 1254.000000"
 preserveAspectRatio="xMidYMid meet">

<g transform="translate(0.000000,1254.000000) scale(0.100000,-0.100000)"
fill="#000000" stroke="none">
<path d="M6190 11053 c-344 -16 -758 -83 -1085 -175 -133 -37 -410 -131 -483
-164 -29 -13 -55 -24 -58 -24 -11 0 -119 -54 -122 -61 -2 -4 -10 -5 -18 -2 -8
3 -14 1 -14 -5 0 -25 48 -20 125 13 98 42 302 115 318 114 7 0 -6 -7 -28 -15
-22 -8 -49 -18 -60 -23 -11 -6 -69 -31 -130 -57 -139 -59 -346 -163 -450 -227
-83 -51 -146 -107 -119 -107 8 0 14 -4 14 -9 0 -4 11 -6 25 -3 18 3 25 0 23
-9 -2 -7 7 -18 19 -23 12 -6 27 -21 32 -34 6 -13 15 -20 21 -17 12 7 33 -33
26 -51 -4 -10 3 -14 24 -14 17 0 30 -4 30 -10 0 -5 8 -7 18 -4 10 4 13 3 6 -3
-13 -9 -15 -45 -2 -37 4 3 11 -2 14 -10 3 -9 10 -16 15 -16 14 0 93 -83 90
-95 -1 -5 5 -2 15 7 13 12 23 14 41 7 16 -6 22 -5 18 1 -3 5 0 7 7 5 8 -3 59
14 114 38 192 85 537 207 549 195 3 -2 -21 -13 -53 -22 -295 -93 -820 -356
-947 -475 -22 -21 -71 -53 -109 -72 -214 -107 -613 -470 -869 -789 -149 -186
-166 -207 -148 -175 53 92 95 149 215 295 111 134 131 155 301 325 88 87 153
155 145 150 -8 -4 -3 4 12 19 33 33 27 54 -8 31 -23 -15 -24 -14 -24 4 0 11 5
23 10 26 18 11 11 35 -11 35 -13 0 -18 -4 -13 -12 4 -7 -2 -4 -14 6 -12 11
-22 30 -22 43 0 16 -8 27 -24 33 -31 12 -36 29 -19 64 8 15 11 26 6 23 -29
-17 -82 63 -62 95 5 7 8 20 8 28 0 10 -2 11 -6 3 -2 -7 -9 -13 -15 -13 -6 0
-8 7 -4 15 3 10 -1 15 -11 15 -15 0 -15 2 0 18 21 23 21 29 3 47 -12 12 -21 9
-62 -22 -27 -20 -65 -50 -85 -67 -20 -17 -56 -47 -80 -66 -143 -113 -435 -426
-591 -632 -103 -137 -212 -297 -241 -358 -4 -8 -14 -26 -22 -40 -8 -14 -15
-35 -15 -47 0 -13 -8 -31 -17 -41 -18 -19 -25 -36 -26 -59 0 -14 -64 -30 -74
-19 -4 3 -6 26 -6 51 l0 45 -22 -33 c-12 -17 -35 -57 -52 -87 -29 -52 -30 -58
-17 -83 l15 -27 427 0 427 0 45 66 c303 441 595 737 1038 1047 333 234 871
474 1272 566 330 77 523 101 857 108 298 6 428 -2 682 -43 842 -134 1614 -534
2196 -1135 294 -304 541 -671 710 -1057 42 -95 55 -116 71 -114 60 9 447 10
614 2 209 -11 215 -10 222 39 2 19 -7 31 -46 57 -43 30 -56 34 -120 35 -39 1
-86 1 -103 0 -18 -1 -33 3 -33 8 0 5 39 10 87 10 47 1 88 3 91 6 5 5 0 18 -74
196 -120 288 -276 571 -402 727 -43 52 -73 72 -65 42 3 -11 9 -20 14 -20 5 0
6 -7 3 -15 -5 -11 -10 -13 -19 -5 -10 8 -15 2 -20 -30 -4 -22 -11 -42 -16 -46
-5 -3 -2 -12 6 -20 8 -9 15 -21 14 -27 0 -8 -2 -8 -6 1 -2 6 -10 9 -15 6 -7
-4 -8 -2 -4 4 4 7 1 12 -8 12 -9 0 -15 -3 -14 -7 3 -13 -14 -56 -28 -71 -16
-16 -59 2 -48 20 4 7 3 8 -4 4 -7 -4 -12 -2 -12 4 0 7 -6 10 -12 7 -15 -5 -11
-45 5 -66 10 -12 9 -14 -4 -9 -17 7 -44 -27 -34 -42 4 -6 -1 -10 -9 -10 -8 0
-19 -7 -24 -16 -5 -9 -13 -17 -18 -17 -5 -1 -8 -15 -7 -30 1 -24 -2 -28 -18
-24 -15 4 -20 -2 -25 -29 -3 -19 -10 -31 -15 -28 -15 9 11 -49 27 -61 9 -6 14
-15 12 -20 -2 -6 37 -90 85 -189 79 -160 122 -257 115 -260 -2 -1 -11 -7 -20
-14 -14 -11 -16 -10 -11 8 7 25 -104 253 -118 244 -5 -3 -9 0 -9 5 0 6 -7 11
-15 11 -19 0 -46 54 -39 77 5 15 4 16 -5 3 -6 -8 -11 -24 -11 -35 0 -15 -5
-12 -24 15 -13 19 -36 59 -51 88 -15 29 -31 55 -36 58 -5 3 -9 9 -9 15 0 5 9
0 21 -12 11 -11 24 -17 27 -13 4 3 2 9 -5 11 -9 3 -9 11 -2 31 6 15 7 24 4 20
-4 -3 -18 0 -33 8 -17 9 -28 10 -31 3 -1 -5 -9 -2 -17 8 -17 22 -18 37 -2 27
8 -5 9 -2 5 9 -4 10 -2 16 6 14 29 -5 5 59 -49 129 -31 41 -58 74 -61 74 -2 0
3 -10 11 -21 13 -19 13 -26 1 -49 -8 -15 -13 -29 -12 -31 1 -2 1 -3 -1 -3 -7
3 -82 108 -82 115 0 3 14 9 31 13 l30 6 -18 31 c-60 103 -316 374 -518 548
-178 153 -401 310 -620 436 -207 120 -564 278 -743 330 -96 28 -147 33 -97 10
24 -11 26 -14 10 -14 -17 -1 -17 -3 -5 -11 12 -8 12 -10 -5 -10 -15 0 -12 -4
13 -17 45 -22 31 -29 -20 -10 -102 38 -525 132 -641 142 -43 4 -76 10 -73 12
6 7 226 -15 284 -28 34 -7 46 -6 58 6 19 18 26 19 42 3 9 -9 12 -9 12 1 0 10
11 12 41 8 67 -9 37 4 -73 29 -179 43 -430 75 -693 89 l-250 13 170 0 c94 -1
253 -7 355 -14 202 -14 220 -15 176 -5 -34 7 -44 39 -19 59 16 11 15 12 -1 12
-25 0 -12 37 24 71 21 20 26 29 17 38 -8 8 -7 11 3 11 9 0 7 5 -6 14 -18 14
-18 15 11 26 17 7 50 15 75 19 l45 7 -37 14 c-20 7 -35 17 -32 22 5 7 -10 12
-28 9 -5 0 -8 6 -8 15 0 8 5 12 10 9 6 -3 10 -2 10 4 0 6 7 7 17 4 10 -4 14
-2 10 4 -5 7 8 14 33 18 42 7 48 13 28 33 -9 9 -8 13 3 17 12 4 50 12 71 14 3
1 4 11 1 24 -5 18 -3 20 8 10 7 -7 18 -13 24 -13 5 0 3 4 -5 10 -22 14 -6 23
42 23 l43 0 -35 12 c-64 22 -332 65 -510 80 -138 13 -628 23 -677 14 -4 -1
-15 0 -23 1 -48 8 131 18 365 19 262 1 446 -8 590 -30 39 -6 81 -12 95 -14 14
-2 58 -9 98 -15 40 -7 76 -9 79 -6 4 3 -2 6 -13 7 -18 0 -18 1 1 10 16 7 14 9
-12 6 -18 -2 -33 0 -33 3 0 4 -15 10 -32 13 -18 3 -73 13 -123 21 -219 38
-605 60 -845 49z m-270 -73 c-8 -5 -26 -10 -40 -10 -20 0 -22 2 -10 10 8 5 26
10 40 10 20 0 22 -2 10 -10z m247 -567 c-20 -2 -52 -2 -70 0 -17 2 0 4 38 4
39 0 53 -2 32 -4z m-520 -59 c-3 -3 -12 -4 -19 -1 -8 3 -5 6 6 6 11 1 17 -2
13 -5z m830 -20 c-3 -3 -12 -4 -19 -1 -8 3 -5 6 6 6 11 1 17 -2 13 -5z m120 0
c-3 -3 -12 -4 -19 -1 -8 3 -5 6 6 6 11 1 17 -2 13 -5z m161 -21 c-10 -2 -26
-2 -35 0 -10 3 -2 5 17 5 19 0 27 -2 18 -5z m-1533 -63 c-11 -5 -27 -9 -35 -9
-9 0 -8 4 5 9 11 5 27 9 35 9 9 0 8 -4 -5 -9z m2382 -116 c-3 -3 -12 -4 -19
-1 -8 3 -5 6 6 6 11 1 17 -2 13 -5z m93 -29 c14 -8 21 -14 15 -14 -5 0 -21 6
-35 14 -14 8 -20 14 -15 14 6 0 21 -6 35 -14z m95 -35 c3 -5 2 -10 -4 -10 -5
0 -13 5 -16 10 -3 6 -2 10 4 10 5 0 13 -4 16 -10z m40 -20 c3 -6 -1 -7 -9 -4
-18 7 -21 14 -7 14 6 0 13 -4 16 -10z m65 -25 c33 -19 21 -19 -21 0 -19 8 -27
14 -19 14 8 0 26 -6 40 -14z m-4905 -1397 c-7 -19 13 -46 23 -32 4 6 15 10 25
8 9 -1 22 7 28 18 6 11 13 18 15 15 6 -5 -48 -107 -56 -107 -3 0 -16 16 -29
35 -13 19 -30 35 -38 35 -11 0 -8 6 8 20 29 23 30 24 24 8z m6830 -328 c3 -5
1 -10 -4 -10 -6 0 -11 5 -11 10 0 6 2 10 4 10 3 0 8 -4 11 -10z m270 -250 c4
-6 -7 -10 -27 -9 -27 0 -30 2 -13 9 27 12 33 12 40 0z m182 4 c-3 -3 -12 -4
-19 -1 -8 3 -5 6 6 6 11 1 17 -2 13 -5z m43 -4 c0 -5 -2 -10 -4 -10 -3 0 -8 5
-11 10 -3 6 -1 10 4 10 6 0 11 -4 11 -10z"/>
<path d="M3036 8583 c-6 -14 -5 -15 5 -6 7 7 10 15 7 18 -3 3 -9 -2 -12 -12z"/>
<path d="M7268 10953 c6 -2 18 -2 25 0 6 3 1 5 -13 5 -14 0 -19 -2 -12 -5z"/>
<path d="M7306 10942 c-9 -15 3 -20 52 -20 52 -1 84 -10 77 -23 -4 -5 -1 -9 4
-9 6 0 11 3 11 8 -1 18 -18 30 -50 36 -19 3 -47 8 -61 12 -15 3 -30 1 -33 -4z"/>
<path d="M7984 10735 c15 -14 32 -25 38 -25 21 0 251 -102 408 -180 235 -118
500 -276 687 -412 53 -39 99 -65 101 -59 2 6 8 8 14 5 7 -4 6 -9 -1 -14 -9 -5
-7 -11 5 -21 16 -12 17 -12 10 1 -4 8 1 5 11 -8 15 -18 21 -20 32 -10 11 11
13 11 7 0 -5 -9 11 -30 45 -63 54 -51 64 -56 74 -39 5 8 12 7 23 -1 36 -24
-57 56 -123 107 -86 67 -221 169 -278 209 -79 57 -321 203 -466 279 -79 42
-145 76 -146 76 -2 0 -36 15 -77 34 -114 53 -353 146 -373 146 -15 0 -14 -4 9
-25z m1366 -765 c0 -5 -4 -10 -10 -10 -5 0 -10 5 -10 10 0 6 5 10 10 10 6 0
10 -4 10 -10z"/>
<path d="M4380 10602 c0 -4 12 -9 28 -10 21 -1 23 0 12 8 -18 12 -40 13 -40 2z"/>
<path d="M4350 10590 c-13 -8 -12 -10 3 -10 9 0 17 5 17 10 0 12 -1 12 -20 0z"/>
<path d="M8198 10583 c6 -2 9 -9 6 -14 -3 -6 -11 -5 -20 2 -12 10 -13 9 -7 -7
3 -10 11 -22 17 -26 7 -5 3 -8 -8 -8 -14 0 -17 -5 -12 -25 6 -24 4 -25 -21
-20 -27 6 -27 6 -9 -9 17 -14 17 -16 3 -16 -10 0 -14 -5 -11 -15 4 -8 1 -15
-6 -15 -7 0 -2 -9 11 -19 l24 -20 -23 6 c-18 4 -21 2 -16 -11 4 -9 3 -16 -2
-15 -27 5 -36 -1 -25 -15 9 -10 9 -16 1 -21 -8 -5 -8 -11 1 -21 9 -11 7 -14
-11 -14 -13 0 -21 -3 -17 -6 8 -8 -16 -33 -25 -27 -4 2 -5 -4 -1 -14 6 -15 5
-16 -9 -5 -14 11 -16 10 -11 -7 3 -13 1 -21 -6 -21 -7 0 -9 -4 -6 -10 3 -5 1
-10 -4 -10 -6 0 -10 -5 -8 -12 1 -7 -3 -12 -10 -13 -20 0 -37 -22 -24 -29 21
-14 11 -26 -16 -20 -16 3 40 -30 122 -73 252 -133 400 -221 594 -356 206 -144
388 -289 538 -431 29 -26 62 -56 75 -64 13 -9 31 -26 41 -37 18 -20 18 -20 6
2 -10 17 -10 27 1 50 7 15 13 31 12 35 -1 4 7 5 18 3 11 -2 21 0 21 6 1 5 2
14 3 19 0 6 5 10 10 9 5 0 13 6 18 15 5 9 14 13 20 10 7 -5 9 2 4 21 -6 24 -5
27 13 22 12 -3 23 -1 26 3 7 12 48 0 63 -18 11 -14 12 -14 12 1 0 9 -4 17 -8
17 -8 0 -42 52 -42 65 0 3 5 3 12 -1 8 -5 9 0 6 14 -7 24 -1 27 21 13 16 -10
67 1 65 15 -2 15 49 32 73 23 16 -6 22 -5 20 4 -1 7 6 11 15 11 10 -1 15 2 12
7 -3 5 0 9 6 9 21 0 -111 140 -255 271 -296 270 -623 493 -993 678 -90 45
-192 86 -205 83 -5 -1 -21 7 -37 18 -15 11 -34 20 -42 19 -10 0 -10 -2 0 -6z"/>
<path d="M4289 10563 c-12 -16 -12 -17 2 -6 9 7 19 10 22 6 4 -3 -1 -12 -11
-20 -15 -11 -13 -12 11 -1 15 6 26 16 24 22 -6 19 -33 18 -48 -1z"/>
<path d="M8046 10385 c10 -8 24 -14 29 -14 6 0 1 6 -9 14 -11 8 -24 15 -30 15
-5 0 -1 -7 10 -15z"/>
<path d="M6165 10204 c-493 -32 -899 -125 -1320 -301 -660 -277 -1243 -744
-1609 -1287 -86 -128 -83 -136 47 -135 157 1 150 -3 268 139 253 303 545 559
864 757 321 199 671 349 1015 438 101 26 335 72 404 80 27 3 52 8 55 9 6 4 48
7 301 25 525 37 1158 -86 1673 -326 75 -35 143 -61 150 -57 6 4 9 3 4 -1 -8
-10 68 -58 98 -61 11 -1 24 -3 28 -3 5 -1 5 -6 1 -13 -4 -7 -3 -8 5 -4 6 4 23
-1 39 -12 15 -11 48 -29 75 -40 26 -12 47 -26 47 -32 0 -6 5 -8 10 -5 6 3 13
-1 16 -9 3 -9 12 -16 20 -16 8 0 14 -5 14 -11 0 -5 4 -8 10 -4 5 3 18 -2 28
-12 10 -10 27 -24 38 -31 42 -27 119 -78 140 -92 112 -75 371 -326 484 -470
41 -52 83 -101 92 -108 10 -7 18 -19 19 -25 0 -7 18 -37 39 -67 21 -30 64 -95
96 -145 31 -49 67 -106 79 -125 39 -59 110 -191 149 -272 l36 -78 119 0 c110
0 120 2 126 19 4 14 -27 86 -94 223 -363 742 -1006 1350 -1811 1715 -203 92
-501 195 -517 179 -3 -2 13 -10 35 -16 47 -12 133 -49 116 -50 -7 0 -40 9 -75
19 -92 28 -380 101 -404 102 -11 0 -15 3 -9 5 6 3 55 -2 109 -10 55 -8 101
-14 103 -12 11 12 -346 79 -530 100 -127 15 -476 26 -583 20z m1805 -384 c8
-5 11 -10 5 -10 -5 0 -17 5 -25 10 -8 5 -10 10 -5 10 6 0 17 -5 25 -10z m165
-81 c6 -6 -8 -3 -30 6 -22 9 -44 21 -50 26 -5 6 8 3 30 -6 22 -9 45 -21 50
-26z m60 -37 c-3 -3 -11 0 -18 7 -9 10 -8 11 6 5 10 -3 15 -9 12 -12z m-4050
-461 c-3 -6 -11 -11 -17 -11 -6 0 -6 6 2 15 14 17 26 13 15 -4z m-73 -53 c-7
-7 -12 -8 -12 -2 0 14 12 26 19 19 2 -3 -1 -11 -7 -17z m4883 -28 c3 -6 -1 -7
-9 -4 -18 7 -21 14 -7 14 6 0 13 -4 16 -10z m-4986 -53 c-13 -13 -26 -21 -29
-19 -5 4 38 42 48 42 3 0 -6 -10 -19 -23z m5086 -47 c38 -38 67 -70 64 -70 -2
0 -36 32 -74 70 -38 39 -67 70 -64 70 2 0 36 -31 74 -70z m-5135 5 c-7 -8 -17
-15 -23 -15 -6 0 -2 7 9 15 25 19 30 19 14 0z m5309 -199 c-2 -2 -13 8 -23 22
l-19 27 24 -22 c12 -12 21 -24 18 -27z m510 -771 c13 -25 21 -48 19 -50 -2 -2
-15 21 -31 51 -15 31 -23 53 -19 50 4 -2 18 -25 31 -51z"/>
<path d="M3405 10007 c-333 -266 -674 -625 -886 -930 -83 -121 -129 -191 -129
-200 0 -4 8 -3 18 2 9 5 22 9 27 8 6 0 40 42 77 94 76 108 129 180 193 262 25
31 45 59 45 61 0 3 13 19 29 36 118 130 151 172 145 182 -4 7 -2 8 4 4 7 -4
12 -2 12 4 0 6 5 8 10 5 6 -4 9 -3 8 2 -2 5 21 31 50 58 28 26 52 55 52 63 0
9 3 12 7 8 4 -3 27 15 52 41 24 27 54 53 65 59 12 5 20 18 18 27 -2 9 2 18 8
18 5 1 15 2 21 3 6 0 16 9 23 18 7 10 16 15 20 11 4 -4 9 3 12 15 4 12 15 24
26 28 16 5 18 8 7 15 -11 7 -10 9 4 9 9 0 17 7 17 15 0 8 5 15 11 15 6 0 17 7
25 15 9 8 13 15 10 15 -3 0 11 16 32 35 46 43 40 44 -13 2z"/>
<path d="M9536 8784 c-4 -9 -4 -19 -1 -22 2 -3 7 3 11 12 4 9 4 19 1 22 -2 3
-7 -3 -11 -12z"/>
<path d="M9655 8599 c-11 -17 1 -21 15 -4 8 9 8 15 2 15 -6 0 -14 -5 -17 -11z"/>
<path d="M1224 8325 c-90 -19 -221 -92 -244 -134 -8 -16 -5 -20 15 -23 17 -4
41 7 80 33 31 21 82 48 113 61 55 22 72 23 427 28 289 4 377 8 400 19 l30 14
-45 8 c-81 14 -708 9 -776 -6z"/>
<path d="M7687 8281 c-26 -50 -58 -173 -56 -213 1 -18 3 -15 10 11 20 67 17
23 -6 -94 -45 -236 -79 -394 -175 -815 -11 -47 -36 -164 -56 -260 -19 -96 -49
-230 -65 -297 -16 -68 -29 -130 -29 -138 0 -8 -5 -15 -11 -15 -5 0 -8 -3 -6
-7 3 -5 -6 -57 -18 -118 -13 -60 -29 -137 -35 -170 -7 -33 -25 -116 -41 -185
-16 -69 -36 -156 -44 -195 -23 -115 -45 -207 -51 -216 -6 -10 -29 -129 -45
-234 -6 -38 -15 -75 -19 -81 -5 -5 -11 -30 -14 -55 -3 -24 -13 -74 -24 -111
l-19 -68 258 -1 c143 -1 266 -1 274 -1 64 0 63 -2 80 75 9 39 25 113 36 162
10 50 37 176 59 280 22 105 51 244 65 310 13 66 38 183 56 260 17 77 33 151
36 165 10 43 22 51 72 44 25 -3 49 -8 53 -11 12 -7 135 -16 229 -17 76 -1 90
2 125 25 44 29 145 74 186 83 40 9 85 62 151 179 56 98 58 100 52 57 -6 -45
-39 -204 -76 -375 -28 -131 -59 -308 -54 -313 6 -6 10 8 25 83 6 33 18 74 26
90 12 25 14 26 9 5 -3 -14 -19 -97 -35 -185 -17 -88 -34 -173 -40 -189 -5 -16
-9 -41 -9 -55 2 -25 2 -25 6 -3 3 15 10 22 19 18 8 -3 14 1 14 10 0 8 -4 13
-9 10 -4 -3 -5 13 0 37 4 23 8 48 9 55 0 6 7 12 15 12 13 0 15 8 10 38 -4 22
-3 32 2 25 14 -19 21 9 159 652 41 193 88 418 105 500 16 83 38 178 50 212 23
70 82 143 147 183 32 19 40 29 35 45 -8 29 -6 28 -62 5 -62 -27 -125 -93 -175
-183 -21 -37 -41 -66 -43 -63 -3 3 4 40 16 83 44 159 120 523 121 574 0 28 -5
38 -24 47 -34 15 -27 44 -192 -728 -13 -63 -38 -182 -54 -265 -17 -82 -35
-168 -41 -190 -25 -93 -144 -227 -244 -275 -126 -59 -148 -64 -330 -65 -282
-3 -333 9 -80 18 207 7 318 21 358 43 17 10 16 11 -3 29 -18 16 -20 16 -20 2
0 -10 5 -17 12 -17 6 0 8 -3 4 -7 -8 -8 -36 23 -36 39 0 4 11 7 24 6 14 -1 23
-5 21 -8 -2 -4 3 -7 12 -7 13 0 11 4 -6 18 -12 10 -23 27 -24 39 -1 13 -8 20
-21 20 -18 0 -18 2 5 27 13 14 18 23 12 19 -16 -9 -16 -1 -2 26 9 16 8 19 -3
12 -11 -6 -11 -5 0 8 10 13 10 17 -2 21 -11 4 -12 14 -6 41 4 20 6 36 3 36 -3
0 0 7 7 15 12 14 19 55 21 125 1 19 6 41 13 49 9 12 8 13 -4 6 -13 -8 -13 -6
-2 8 8 9 11 21 7 26 -3 6 0 8 8 5 10 -4 13 3 12 26 -1 21 3 30 14 31 14 0 14
1 1 7 -9 4 -15 14 -14 22 4 55 4 56 24 20 11 -19 20 -32 21 -27 4 16 7 49 8
85 1 27 6 39 16 39 8 0 12 -4 9 -8 -2 -4 1 -11 7 -15 7 -4 9 -3 5 4 -3 5 -1
12 6 14 17 6 17 46 0 53 -9 3 -19 0 -24 -7 -5 -9 -8 -9 -8 -1 0 6 14 23 30 36
17 14 35 38 42 54 14 36 13 31 23 78 4 22 12 48 17 59 7 14 7 16 -2 11 -7 -4
-4 4 5 19 10 15 15 29 11 33 -3 4 2 15 11 25 9 10 18 29 20 41 2 12 6 29 9 37
4 8 8 33 10 55 4 54 9 73 19 82 4 4 5 2 0 -6 -6 -10 -4 -12 4 -6 7 4 11 16 8
26 -3 11 -1 17 3 14 5 -3 14 12 20 34 5 21 17 42 25 45 8 3 15 12 15 21 0 8 4
15 9 15 5 0 29 19 53 43 52 49 77 89 60 95 -6 2 -8 10 -5 17 5 15 -48 75 -67
75 -6 0 -8 -4 -5 -10 5 -8 -22 -14 -55 -12 -3 0 -16 -15 -30 -33 -14 -19 -41
-39 -62 -46 -21 -7 -45 -20 -54 -30 -9 -10 -20 -17 -24 -14 -4 2 -6 -7 -4 -22
2 -18 -1 -22 -8 -15 -8 8 -18 6 -34 -5 -13 -8 -28 -12 -33 -9 -5 4 -12 2 -16
-4 -4 -6 -11 -7 -17 -4 -6 4 -8 2 -5 -3 4 -6 0 -14 -9 -17 -8 -3 -13 -10 -10
-15 6 -10 -18 -34 -26 -26 -3 3 -11 -2 -18 -10 -11 -13 -11 -16 1 -13 8 2 13
-4 13 -14 -1 -10 2 -16 6 -13 4 2 16 -6 27 -18 23 -26 29 -88 14 -144 -6 -21
-24 -105 -41 -188 -17 -82 -37 -179 -45 -215 -27 -126 -64 -305 -68 -330 -13
-87 -93 -182 -164 -194 -49 -8 -177 -8 -225 0 -26 5 -38 12 -38 23 0 10 12 75
26 147 25 120 50 276 49 299 0 6 -6 20 -13 32 -8 14 -9 24 -2 28 23 14 -4 25
-38 16 -1 -1 5 -12 14 -26 9 -14 12 -25 6 -25 -5 0 -10 -12 -11 -27 -1 -52 -4
-64 -13 -55 -10 10 -16 34 -17 70 -1 17 -6 22 -18 20 -10 -2 -17 -11 -15 -19
2 -8 0 -10 -4 -6 -11 11 -14 38 -4 32 5 -3 12 0 16 7 4 7 4 10 -1 6 -4 -4 -14
0 -22 10 -12 16 -13 16 -6 -2 5 -15 3 -17 -8 -11 -11 7 -12 6 -2 -7 7 -8 10
-18 6 -21 -3 -4 0 -13 7 -22 11 -13 10 -14 -4 -9 -11 4 -16 2 -14 -7 2 -7 -2
-13 -9 -14 -6 0 -15 -3 -18 -7 -4 -4 -15 -3 -25 2 -12 6 -21 3 -34 -12 -18
-20 -18 -21 0 -15 15 5 14 3 -3 -9 -13 -9 -23 -26 -23 -37 0 -19 -1 -19 -18
-4 -17 15 -18 14 -20 -16 -3 -35 -21 -60 -29 -39 -9 24 -31 11 -54 -33 -13
-25 -27 -45 -31 -45 -3 0 -4 -10 -1 -22 4 -19 3 -20 -6 -8 -9 12 -11 11 -11
-8 0 -13 -11 -67 -24 -120 -26 -102 -66 -274 -111 -477 -15 -66 -35 -156 -45
-200 -21 -89 -78 -367 -149 -722 l-47 -232 184 -3 c115 -2 186 1 190 7 4 6 17
53 28 105 108 481 213 927 213 908 1 -10 -12 -77 -28 -150 -31 -144 -78 -367
-144 -687 l-42 -205 -221 -3 -222 -4 13 68 c8 37 22 106 33 153 11 47 29 128
41 180 12 52 41 187 66 300 25 113 81 378 126 590 44 212 105 500 135 640 106
488 159 736 211 997 l38 191 362 -5 c326 -5 368 -4 418 11 30 10 53 22 49 27
-3 5 -190 9 -439 9 l-434 0 -24 -49z m923 -235 c0 -2 -8 -10 -17 -17 -16 -13
-17 -12 -4 4 13 16 21 21 21 13z m-70 -60 c0 -2 -8 -10 -17 -17 -16 -13 -17
-12 -4 4 13 16 21 21 21 13z m-620 -682 c0 -8 -19 -13 -24 -6 -3 5 1 9 9 9 8
0 15 -2 15 -3z m467 -76 c-3 -7 -5 -2 -5 12 0 14 2 19 5 13 2 -7 2 -19 0 -25z
m20 0 c-3 -7 -5 -2 -5 12 0 14 2 19 5 13 2 -7 2 -19 0 -25z m-620 -830 c-3 -8
-6 -5 -6 6 -1 11 2 17 5 13 3 -3 4 -12 1 -19z m-20 -90 c-3 -8 -6 -5 -6 6 -1
11 2 17 5 13 3 -3 4 -12 1 -19z m-10 -55 c-3 -10 -5 -4 -5 12 0 17 2 24 5 18
2 -7 2 -21 0 -30z m880 -318 c0 -8 -4 -15 -9 -15 -10 0 -11 14 -1 23 9 10 10
9 10 -8z"/>
<path d="M2143 8284 c-5 -13 1 -23 22 -38 53 -38 114 -98 121 -118 4 -15 13
-19 41 -16 40 3 40 3 77 -87 18 -44 26 -56 31 -43 9 24 -43 129 -97 197 -75
93 -178 149 -195 105z"/>
<path d="M8732 8278 c-19 -19 -15 -25 42 -62 29 -19 70 -55 91 -80 30 -35 42
-43 55 -36 10 5 20 6 24 3 11 -12 6 18 -8 46 -19 36 -85 95 -135 121 -47 23
-53 24 -69 8z"/>
<path d="M1285 8240 c-33 -3 -69 -11 -80 -18 -15 -10 -15 -12 -3 -8 10 3 20 1
23 -4 4 -6 1 -10 -5 -10 -6 0 -8 -4 -5 -10 3 -5 1 -10 -4 -10 -6 0 2 -12 18
-27 19 -20 28 -38 29 -62 0 -19 5 -37 9 -40 14 -10 16 -91 3 -107 -7 -7 -9
-14 -6 -14 4 0 1 -6 -6 -14 -7 -8 -16 -12 -20 -9 -5 2 -8 -3 -8 -12 0 -9 -4
-14 -9 -10 -6 3 -14 -3 -20 -12 -6 -10 -11 -15 -11 -11 0 4 -17 1 -37 -6 -46
-15 -169 -14 -185 2 -9 9 -16 8 -30 -5 -18 -16 -18 -16 -12 3 4 10 3 16 -1 11
-5 -4 -9 -15 -10 -25 -1 -9 -5 -24 -8 -32 -26 -64 -65 -196 -198 -665 -61
-217 -128 -448 -173 -605 -73 -250 -132 -450 -164 -561 -120 -404 -155 -551
-148 -604 14 -88 73 -140 196 -170 55 -13 123 -15 455 -11 215 2 449 5 522 5
l132 1 37 120 c21 66 39 118 41 116 4 -3 -28 -155 -48 -230 l-11 -39 -593 7
c-549 7 -593 6 -599 -10 -3 -9 -1 -23 5 -30 6 -8 9 -14 6 -14 -13 0 -94 33
-115 46 l-24 16 22 23 23 24 -26 53 c-15 29 -34 79 -42 111 -9 33 -20 55 -26
51 -5 -3 -16 -1 -24 6 -11 9 -15 5 -21 -24 -15 -81 25 -202 86 -263 41 -41
147 -113 169 -114 9 0 25 -2 36 -5 88 -19 236 -24 698 -24 461 -1 533 1 543
14 6 9 28 82 48 163 21 81 53 198 72 258 18 61 45 155 59 210 15 55 56 210 92
345 36 135 76 283 88 330 12 47 30 112 39 145 41 143 87 332 88 356 1 29 -29
86 -49 94 -8 2 -31 -6 -53 -20 -42 -27 -49 -44 -106 -260 -38 -146 -73 -267
-79 -273 -8 -8 5 57 22 108 8 25 23 81 33 125 10 44 28 116 39 160 12 44 21
83 21 87 0 4 -145 6 -322 5 l-323 -2 -48 -165 c-28 -96 -43 -166 -37 -168 19
-7 10 -22 -13 -22 -14 0 -42 -17 -65 -38 -23 -22 -42 -38 -42 -37 0 2 9 31 19
66 11 35 29 99 40 143 12 43 28 90 35 105 l14 26 8 -29 c6 -26 9 -21 35 55 23
65 27 89 19 107 -13 30 -13 36 3 25 6 -5 74 -11 149 -12 156 -3 415 9 400 18
-6 3 -124 8 -264 9 -139 2 -255 6 -257 8 -12 11 175 663 196 686 18 20 117 26
128 8 4 -6 -14 -86 -39 -178 -39 -143 -44 -173 -36 -204 6 -20 17 -41 25 -48
10 -8 100 -12 312 -14 164 -1 308 0 319 2 27 5 41 31 58 107 7 33 34 132 60
220 80 278 86 302 86 355 0 42 -3 51 -15 46 -8 -3 -19 2 -24 12 -15 26 -42
-45 -91 -232 -23 -88 -46 -167 -51 -175 -19 -31 18 125 68 286 24 78 24 92 -1
119 -14 14 -31 -20 -52 -100 -8 -33 -22 -81 -29 -106 -12 -41 -48 -164 -89
-310 l-15 -55 -241 3 c-132 1 -240 6 -240 10 0 6 36 141 60 227 23 80 39 144
45 180 l8 40 9 -32 c6 -25 2 -58 -17 -133 -14 -56 -23 -106 -19 -112 4 -6 3
-8 -4 -5 -6 5 -13 -9 -17 -34 -4 -23 -14 -57 -21 -75 -8 -18 -14 -36 -14 -39
0 -3 98 -5 218 -5 l219 0 12 58 c7 31 19 75 27 97 13 39 16 52 28 125 l6 35
-13 -28 c-7 -15 -16 -25 -19 -22 -3 3 -3 -7 -1 -22 4 -22 2 -25 -6 -13 -16 23
-13 81 6 102 10 12 12 18 4 18 -8 0 -10 8 -6 23 5 19 4 20 -5 4 -6 -9 -8 -22
-5 -27 14 -22 -25 4 -40 27 -10 14 -12 23 -7 19 6 -3 13 -2 17 4 3 5 1 10 -5
10 -7 0 -10 7 -7 15 4 8 2 17 -2 19 -4 3 -7 21 -6 39 1 24 -3 34 -13 33 -8 -1
-17 6 -19 14 -4 13 -3 13 7 0 10 -12 11 -12 5 5 -4 11 -8 29 -10 40 -1 11 -3
24 -4 29 0 5 -8 3 -16 -4 -8 -7 -12 -17 -9 -22 4 -6 10 -5 15 3 6 10 8 8 6 -8
-2 -12 -7 -26 -11 -30 -4 -5 -6 -3 -4 2 4 15 -38 66 -48 57 -5 -4 -4 0 2 8 26
37 24 47 -12 45 -19 -2 -37 1 -40 6 -3 5 -10 7 -15 4 -5 -4 -12 1 -15 10 -6
14 -8 14 -21 -2 -8 -10 -12 -12 -8 -5 9 17 -13 42 -30 36 -7 -3 -19 4 -25 16
-6 11 -15 18 -21 15 -5 -4 -8 -1 -7 7 2 7 -2 12 -9 11 -7 -2 -10 4 -7 12 8 19
-14 47 -29 38 -6 -4 -8 0 -4 10 5 13 1 17 -16 18 -12 0 -31 2 -42 5 -32 7
-355 10 -420 4z m718 -211 c-8 -8 -13 -7 -18 2 -5 8 -4 10 3 5 7 -4 12 -2 12
5 0 7 3 9 7 6 4 -4 2 -12 -4 -18z m-283 -160 c0 -4 7 -5 17 -2 10 4 14 2 10
-5 -4 -6 -2 -12 5 -15 7 -2 4 -2 -7 1 -11 3 -49 5 -85 4 -97 -3 -216 8 -199
19 18 12 259 10 259 -2z m-327 -34 c-21 -15 -22 -19 -119 -380 -20 -71 -42
-150 -49 -175 -8 -25 -23 -81 -34 -125 -25 -104 -86 -318 -181 -635 -15 -52
-42 -142 -58 -200 -100 -344 -155 -530 -168 -563 -8 -20 -14 -51 -14 -68 0
-33 -3 -33 63 -12 26 8 22 -29 -5 -46 l-22 -14 23 -9 c19 -7 29 -4 47 13 14
13 36 22 54 21 26 -1 30 3 30 24 0 25 147 562 176 641 15 40 17 42 42 32 15
-6 48 -8 73 -5 55 7 63 -3 48 -61 -40 -147 -163 -571 -170 -584 -4 -9 -23 -23
-41 -32 -32 -16 -32 -17 -10 -23 18 -5 21 -9 10 -16 -8 -6 -5 -7 12 -2 44 12
78 43 94 87 28 80 148 491 196 672 30 113 50 162 50 121 0 -24 -32 -149 -87
-336 -64 -220 -100 -350 -108 -390 -16 -75 -52 -138 -96 -167 -42 -27 -45 -28
-185 -28 -128 0 -145 2 -170 21 -55 41 -55 43 36 374 61 223 75 274 105 380
14 52 39 142 55 200 15 58 35 128 43 155 9 28 41 138 72 245 31 107 65 222 75
255 10 33 35 121 55 195 20 74 43 156 51 182 8 26 24 83 35 128 19 83 51 140
78 140 11 0 10 -4 -6 -15z m167 -49 c0 -2 -7 -7 -16 -10 -8 -3 -12 -2 -9 4 6
10 25 14 25 6z m537 -56 c1 -11 -2 -22 -6 -24 -6 -4 -7 26 -2 42 3 8 7 -1 8
-18z m143 -280 c-7 -28 -14 -49 -16 -47 -3 2 1 27 8 55 6 29 13 50 16 47 2 -2
-1 -27 -8 -55z m-955 -242 c-20 -84 -46 -179 -57 -211 -23 -66 -44 -88 -33
-36 14 71 118 409 124 404 2 -2 -13 -73 -34 -157z m912 100 c-3 -8 -6 -5 -6 6
-1 11 2 17 5 13 3 -3 4 -12 1 -19z m-1058 -582 c-12 -42 -24 -74 -27 -72 -2 3
6 39 19 81 12 41 24 73 26 71 2 -2 -6 -38 -18 -80z m888 -48 c-3 -8 -6 -5 -6
6 -1 11 2 17 5 13 3 -3 4 -12 1 -19z m-10 -40 c-3 -8 -6 -5 -6 6 -1 11 2 17 5
13 3 -3 4 -12 1 -19z m-21 -100 c-16 -65 -57 -212 -102 -366 -9 -30 -18 -52
-20 -49 -4 3 31 141 101 395 14 51 25 96 25 99 0 4 3 3 6 0 4 -4 -1 -39 -10
-79z m-701 -18 c3 -5 2 -10 -4 -10 -5 0 -13 5 -16 10 -3 6 -2 10 4 10 5 0 13
-4 16 -10z m554 -209 c-7 -28 -15 -49 -17 -46 -2 2 2 27 9 54 7 28 15 49 17
46 2 -2 -2 -27 -9 -54z m-868 -146 c-21 -72 -44 -155 -51 -185 -7 -30 -15 -50
-17 -45 -2 6 6 44 17 85 11 41 29 110 41 153 22 89 38 132 44 125 2 -2 -13
-62 -34 -133z m816 -47 c-3 -8 -6 -5 -6 6 -1 11 2 17 5 13 3 -3 4 -12 1 -19z
m70 -30 c-3 -8 -6 -5 -6 6 -1 11 2 17 5 13 3 -3 4 -12 1 -19z m-10 -40 c-3 -8
-6 -5 -6 6 -1 11 2 17 5 13 3 -3 4 -12 1 -19z m-92 -48 c-9 -41 -17 -33 -9 9
4 17 9 30 11 27 3 -2 2 -19 -2 -36z m-18 -62 c-3 -8 -6 -5 -6 6 -1 11 2 17 5
13 3 -3 4 -12 1 -19z m-22 -79 c-8 -19 -13 -25 -9 -14 3 11 8 34 12 50 3 17 8
23 10 14 1 -9 -4 -32 -13 -50z m72 -41 c-3 -8 -6 -5 -6 6 -1 11 2 17 5 13 3
-3 4 -12 1 -19z m-93 -47 c-4 -17 -9 -30 -11 -27 -3 2 -2 19 2 36 9 41 17 33
9 -9z m-837 -13 c-3 -8 -6 -5 -6 6 -1 11 2 17 5 13 3 -3 4 -12 1 -19z m820
-50 c-3 -8 -6 -5 -6 6 -1 11 2 17 5 13 3 -3 4 -12 1 -19z"/>
<path d="M3110 8068 c-30 -40 -68 -90 -85 -112 l-30 -41 30 21 c17 11 37 23
46 27 9 3 41 35 70 71 l54 65 173 0 c94 1 172 -2 172 -6 -1 -9 -101 -123 -240
-272 l-84 -91 -162 0 c-147 0 -166 -2 -203 -22 -22 -12 -43 -29 -46 -38 -5
-17 18 -85 33 -94 4 -2 87 -5 183 -6 294 -2 260 -8 310 56 43 55 138 158 294
322 44 46 84 90 88 98 13 22 -1 34 -39 34 -39 0 -40 2 -18 35 l16 25 -253 0
-254 -1 -55 -71z m470 -41 c0 -2 -10 -12 -22 -23 l-23 -19 19 23 c18 21 26 27
26 19z m-73 -77 c-27 -39 -250 -270 -260 -270 -6 0 35 46 90 103 55 56 117
121 138 145 39 44 56 56 32 22z m-354 -277 c-18 -2 -48 -2 -65 0 -18 2 -4 4
32 4 36 0 50 -2 33 -4z"/>
<path d="M887 8059 c-19 -27 -52 -126 -97 -289 -17 -63 -44 -160 -60 -215 -38
-132 -81 -287 -115 -410 -15 -55 -35 -127 -45 -160 -10 -33 -28 -103 -40 -155
-12 -52 -24 -102 -27 -110 -3 -8 -7 -19 -9 -25 -1 -5 -5 -18 -9 -27 -4 -11 -3
-18 4 -18 6 0 2 -18 -9 -45 -11 -25 -19 -48 -19 -50 2 -19 -14 -85 -21 -85
-12 0 -53 -128 -115 -360 -9 -30 -24 -84 -35 -120 -10 -36 -33 -112 -50 -170
-17 -58 -40 -133 -51 -168 -10 -34 -19 -67 -19 -72 0 -18 15 -10 33 18 l18 27
-6 -27 c-10 -52 2 -28 33 60 29 82 57 176 117 392 14 52 40 142 56 200 55 191
67 234 104 370 20 74 50 180 66 235 34 115 39 131 114 399 78 278 112 423 85
361 -7 -15 -8 -12 -6 15 2 19 6 42 8 50 3 8 11 44 17 80 19 106 48 184 73 195
30 14 50 74 33 104 l-12 24 -16 -24z"/>
<path d="M3180 8028 c-17 -20 -30 -42 -30 -47 0 -6 -4 -11 -10 -11 -5 0 -10
-4 -10 -10 0 -20 30 3 31 24 0 17 4 14 15 -13 8 -18 13 -40 10 -47 -3 -8 1
-14 9 -14 8 0 22 -11 31 -25 9 -14 26 -25 38 -25 11 0 17 -4 11 -8 -5 -4 -17
-16 -25 -27 -11 -13 -5 -11 20 7 31 24 220 221 220 230 0 2 -63 3 -140 3
l-141 0 -29 -37z"/>
<path d="M2026 8005 c4 -8 7 -15 9 -15 2 0 5 7 9 15 3 9 0 15 -9 15 -9 0 -12
-6 -9 -15z"/>
<path d="M8403 7925 c0 -8 4 -12 9 -9 5 3 6 10 3 15 -9 13 -12 11 -12 -6z"/>
<path d="M8105 7845 c-2 -5 -19 -86 -40 -180 -20 -93 -52 -237 -70 -320 -63
-277 -117 -520 -118 -535 -1 -9 4 -13 13 -10 8 3 54 4 103 3 54 -2 87 1 87 8
0 6 16 8 44 4 39 -6 47 -4 76 22 27 25 34 41 51 123 10 52 23 113 28 135 12
49 57 247 111 492 45 205 47 225 24 244 -21 17 -305 30 -309 14z m192 -201 c6
-17 -3 -68 -91 -474 -64 -293 -66 -301 -79 -317 -6 -8 -36 -13 -83 -13 -85 0
-84 -1 -60 90 8 30 19 82 25 115 7 33 25 119 41 190 16 72 42 193 59 269 16
77 36 143 43 147 7 5 41 9 76 9 49 0 64 -4 69 -16z"/>
<path d="M2126 7777 c3 -10 9 -15 12 -12 3 3 0 11 -7 18 -10 9 -11 8 -5 -6z"/>
<path d="M3038 7555 c-2 -1 -25 -5 -52 -8 -62 -8 -69 -14 -14 -15 23 -1 44 -6
46 -11 5 -16 49 -14 85 4 18 8 48 16 67 18 21 2 10 5 -30 6 -36 1 -73 4 -82 6
-9 2 -18 2 -20 0z"/>
<path d="M4138 7539 c-13 -3 26 -11 91 -19 92 -10 132 -11 215 0 55 6 106 13
111 15 24 8 -386 12 -417 4z"/>
<path d="M2600 7526 c-72 -19 -158 -74 -201 -128 -40 -52 -53 -84 -21 -55 10
10 25 17 33 17 8 0 44 22 80 48 35 27 84 57 109 67 25 10 55 29 68 42 l23 23
-23 -1 c-13 0 -43 -6 -68 -13z"/>
<path d="M3935 7526 c-121 -29 -237 -146 -276 -276 -7 -22 -15 -40 -19 -40 -4
0 -13 28 -20 63 -6 34 -17 71 -23 82 -29 56 -92 127 -127 145 -42 21 -65 26
-55 11 3 -6 -3 -15 -12 -21 -15 -9 -16 -12 -3 -17 8 -3 39 -31 69 -61 45 -47
54 -53 62 -39 22 38 59 -19 59 -90 0 -33 -2 -34 -28 -28 -20 4 -33 1 -42 -10
-7 -8 -41 -133 -76 -278 -35 -144 -71 -293 -80 -330 -9 -37 -14 -71 -10 -74 3
-3 6 -1 6 6 0 27 32 121 39 116 8 -5 34 55 47 108 3 15 10 27 14 27 8 0 4 -21
-36 -181 -30 -121 -42 -215 -26 -205 12 7 16 -7 14 -53 -3 -49 16 -2 48 124
49 193 48 192 70 122 25 -80 50 -115 177 -244 111 -112 232 -251 291 -332 34
-47 40 -88 22 -151 -6 -19 -24 -87 -40 -150 -42 -162 -45 -168 -93 -181 -28
-7 -36 -13 -27 -19 10 -6 5 -10 -16 -13 -16 -2 -4 -5 28 -6 68 -1 105 13 124
50 18 37 114 413 114 451 0 17 4 27 10 23 16 -10 12 -67 -9 -136 -11 -35 -36
-127 -56 -204 -20 -77 -43 -151 -52 -163 -24 -39 -88 -62 -174 -62 -85 0 -135
13 -149 40 -15 28 -12 35 13 36 12 1 33 5 47 10 l25 8 -18 -27 c-17 -26 -17
-27 3 -27 11 0 19 6 18 13 -2 7 9 13 25 15 22 3 27 8 27 31 0 15 9 54 19 87
11 32 29 101 42 151 l22 93 -23 45 -23 45 -245 0 c-135 0 -243 -2 -240 -5 7
-7 232 -27 323 -29 44 0 90 3 102 7 20 7 19 4 -8 -22 l-31 -31 -178 0 -179 0
-20 -67 c-10 -38 -43 -155 -72 -260 -30 -106 -58 -193 -63 -193 -13 0 0 78 29
170 14 47 44 150 66 229 l39 144 -20 32 c-25 40 -25 52 -1 134 18 61 37 162
25 134 -3 -7 -12 -13 -21 -13 -10 0 -12 6 -8 23 6 20 5 20 -8 7 -8 -8 -22 -41
-32 -74 -21 -75 -28 -69 -9 9 9 33 19 116 23 185 4 69 11 134 15 145 7 18 6
18 -4 2 -6 -9 -17 -39 -24 -65 -7 -26 -47 -171 -89 -322 -41 -151 -80 -286
-85 -300 -14 -32 -15 -12 -2 26 5 16 18 67 29 114 10 47 32 139 50 206 37 147
41 166 31 179 -5 6 -13 26 -18 45 l-10 35 -2 -35 c-2 -19 -3 -50 -3 -68 0 -18
-3 -30 -6 -26 -3 3 -6 11 -6 17 0 7 -10 12 -22 13 -16 1 -20 -3 -15 -15 5 -14
3 -14 -11 -2 -9 7 -14 18 -10 24 3 5 2 7 -4 4 -17 -10 -47 19 -48 46 -1 15 2
24 6 22 4 -3 5 4 2 14 -3 11 4 28 16 40 12 12 19 26 16 31 -3 5 -1 11 4 14 5
4 13 1 17 -5 5 -8 3 -9 -7 -4 -12 8 -12 6 0 -8 7 -9 17 -14 23 -11 5 4 5 10
-1 18 -6 7 -6 17 -1 26 7 12 11 10 19 -10 5 -14 10 -19 10 -12 1 7 5 11 9 8 4
-2 9 7 10 20 1 14 9 33 18 41 15 15 17 15 25 0 5 -9 16 -14 24 -11 9 4 15 0
15 -7 1 -19 21 17 25 44 2 12 15 60 30 107 64 210 124 465 117 493 -6 23 -21
3 -17 -22 1 -9 0 -10 -2 -3 -3 6 -8 12 -13 12 -31 0 -3 84 31 93 16 4 19 11
13 34 -17 76 -83 115 -162 94 -47 -11 -112 -6 -123 11 -16 25 -247 29 -551 9
-15 -1 -15 -5 -2 -48 17 -57 18 -135 2 -152 -11 -11 -10 -12 0 -6 11 6 11 3 1
-13 -7 -12 -17 -18 -21 -16 -4 3 -8 0 -8 -5 0 -6 -7 -11 -16 -11 -9 0 -12 -5
-8 -12 4 -7 3 -10 -1 -5 -5 4 -19 0 -31 -8 -15 -9 -53 -16 -101 -18 l-77 -2
-23 -73 c-13 -41 -26 -91 -29 -113 l-7 -40 176 1 176 2 21 71 c11 40 25 83 30
97 l8 25 1 -25 c1 -14 -3 -41 -8 -60 -6 -19 -15 -54 -21 -77 l-11 -43 -191 0
-191 0 -48 -30 c-26 -17 -50 -38 -53 -46 -8 -21 18 -81 41 -91 20 -10 357 -9
471 2 71 7 74 8 87 39 8 18 22 63 31 99 18 72 26 83 67 91 44 8 47 -17 18
-127 l-26 -98 -85 -35 c-47 -20 -155 -64 -240 -98 -201 -81 -201 -81 -133 -83
55 -2 71 3 283 92 145 61 171 73 177 79 3 3 14 6 24 6 10 0 21 5 25 11 4 7 30
97 59 202 34 124 54 183 57 169 4 -12 0 -43 -8 -70 -7 -26 -30 -108 -49 -182
-20 -74 -43 -140 -51 -147 -9 -6 -95 -44 -192 -83 -97 -40 -240 -99 -317 -132
-77 -32 -150 -63 -161 -68 -32 -13 -94 -70 -94 -86 0 -8 -4 -14 -9 -14 -5 0
-7 -9 -4 -20 3 -11 9 -18 13 -15 4 3 10 -1 13 -9 15 -38 -32 -111 -65 -100
-11 3 -18 0 -18 -8 0 -10 -2 -10 -9 1 -10 15 -31 -36 -55 -129 -18 -72 -111
-402 -142 -505 -13 -44 -27 -103 -31 -130 -5 -37 -8 -44 -14 -30 -4 11 -8 32
-8 48 -1 27 -30 41 -32 15 0 -7 -4 -4 -8 7 -6 16 -11 9 -21 -34 -35 -146 46
-287 208 -364 65 -31 71 -32 197 -31 91 0 146 6 184 17 68 21 107 22 119 2 12
-22 548 -27 562 -5 5 8 23 71 40 140 17 69 35 132 39 139 6 9 14 -3 25 -36 23
-70 60 -121 122 -172 91 -73 99 -74 452 -78 286 -4 321 -2 392 16 139 35 247
116 303 227 13 27 43 127 66 222 23 95 60 237 81 315 62 227 65 253 46 341
-10 42 -22 78 -27 82 -5 3 -20 27 -34 53 -29 59 -64 85 -83 64 -7 -7 -18 -10
-25 -6 -6 4 -1 -6 11 -22 13 -17 33 -45 45 -62 21 -32 57 -45 57 -22 0 8 4 8
14 0 20 -17 29 -81 16 -116 l-11 -28 -15 21 c-20 28 -28 28 -42 -3 -26 -56
-143 -528 -157 -631 -6 -45 -4 -51 12 -51 10 0 21 5 25 11 14 20 8 -23 -8 -63
l-15 -39 -29 16 -29 17 -53 -54 c-109 -109 -185 -131 -457 -131 -113 0 -256
-3 -317 -6 -101 -6 -110 -8 -109 -26 1 -11 8 -24 16 -29 11 -7 11 -9 -3 -9
-19 0 -98 29 -98 36 0 3 7 15 16 29 14 22 14 24 -5 34 -26 14 -67 69 -76 101
-6 23 -5 22 13 -5 29 -45 53 -63 118 -87 54 -20 82 -22 316 -26 361 -5 431 8
535 102 88 79 121 155 187 426 49 203 68 300 63 322 -3 11 1 22 9 25 17 6 18
34 2 52 -11 11 -10 12 1 6 11 -6 13 -3 9 13 -4 12 -2 22 3 22 17 0 -2 73 -26
105 -26 34 -79 89 -317 331 l-168 172 0 49 c0 45 34 199 62 283 7 19 12 41 12
49 1 8 12 16 25 18 20 3 22 1 11 -12 -7 -8 -17 -12 -23 -8 -5 3 -8 2 -4 -3 7
-12 -27 -179 -47 -226 -20 -48 -22 -128 -2 -128 7 0 19 7 26 15 11 13 16 10
39 -22 22 -32 26 -35 29 -18 2 11 17 64 34 117 29 95 30 98 66 108 28 7 40 7
51 -4 12 -12 11 -24 -2 -83 -16 -72 -15 -116 2 -136 8 -10 70 -12 268 -9 142
2 262 7 267 12 9 9 101 340 111 401 6 35 -10 149 -25 177 -4 8 -7 -13 -8 -45
0 -32 -10 -85 -21 -118 -21 -59 -21 -56 -4 49 5 30 3 38 -7 34 -23 -7 -48 -68
-85 -207 -19 -73 -37 -137 -40 -141 -3 -4 -93 -7 -200 -7 -169 1 -194 4 -190
17 19 60 45 169 45 191 0 45 -29 61 -102 55 -34 -3 -79 -2 -98 3 l-35 9 30 2
c17 1 39 3 50 6 49 9 93 6 125 -11 34 -18 35 -18 20 1 -14 18 -14 18 11 2 23
-15 26 -15 38 0 6 10 9 11 5 3 -5 -9 -3 -12 4 -7 7 4 12 14 12 22 0 8 5 15 10
15 6 1 14 2 19 3 5 0 21 11 35 23 14 13 26 20 27 15 0 -4 4 3 9 16 5 12 16 22
25 22 8 0 15 6 15 13 0 9 2 9 8 0 6 -9 15 -8 38 6 35 21 42 57 13 66 -22 7
-27 50 -6 59 6 3 1 3 -13 0 -14 -4 -27 -10 -30 -14 -8 -10 -111 -10 -105 1 4
5 3 9 -2 10 -4 0 -21 3 -38 5 -16 3 -99 7 -183 10 -225 8 -312 -22 -283 -99 6
-15 10 -45 9 -65 0 -20 7 -52 16 -71 10 -18 13 -30 8 -27 -6 4 -18 -4 -26 -16
-9 -12 -16 -19 -16 -15 0 5 -13 -1 -30 -13 -16 -12 -30 -18 -30 -13 0 4 -4 2
-8 -5 -5 -7 -22 -15 -38 -18 -16 -3 -31 -8 -34 -12 -11 -15 -29 -11 -35 8 -7
23 -32 16 -40 -11 -4 -11 -11 -17 -16 -13 -5 3 -7 8 -5 12 2 4 -6 7 -19 7 -18
0 -25 -7 -29 -29 -3 -15 -3 -33 1 -39 3 -5 1 -7 -4 -4 -6 4 -13 -3 -16 -16 -3
-12 -21 -83 -40 -157 -20 -74 -37 -151 -39 -170 l-4 -35 -16 50 c-9 28 -17 44
-17 36 -1 -7 -7 -11 -15 -8 -8 3 -17 1 -20 -6 -2 -7 -5 -2 -5 11 -1 12 6 38
14 58 8 19 14 35 14 37 -1 1 4 21 10 45 12 43 27 60 17 20 -4 -16 -2 -14 6 5
7 15 17 27 23 27 11 0 56 150 76 255 7 33 15 64 20 69 4 5 4 17 -2 28 -14 27
25 86 63 92 7 1 33 17 58 35 25 18 69 45 98 59 28 14 52 31 52 38 0 6 10 16
23 22 20 10 20 11 2 10 -11 0 -42 -5 -70 -12z m-927 -341 c-9 -8 -122 -14
-150 -7 l-33 7 40 5 c38 5 150 1 143 -5z m-228 -19 c0 -2 -8 -10 -17 -17 -16
-13 -17 -12 -4 4 13 16 21 21 21 13z m2049 -185 c-18 -72 -36 -125 -40 -119
-4 7 -3 20 2 31 6 10 15 44 20 76 5 33 16 72 24 87 8 16 15 38 15 48 0 11 3
16 6 13 4 -4 -8 -65 -27 -136z m-720 -133 c-19 -36 -23 -4 -8 65 l14 62 3 -52
c2 -29 -2 -63 -9 -75z m-1339 55 c-14 -51 -37 -88 -27 -43 9 41 31 99 36 95 2
-3 -2 -26 -9 -52z m717 -5 c-3 -8 -6 -5 -6 6 -1 11 2 17 5 13 3 -3 4 -12 1
-19z m158 -294 c9 -15 12 -23 6 -20 -11 7 -35 46 -28 46 3 0 12 -12 22 -26z
m150 -163 c28 -30 45 -52 40 -50 -6 2 -33 28 -60 58 -28 30 -45 52 -40 50 6
-2 33 -28 60 -58z m187 -206 c12 -16 -9 3 -48 44 -38 40 -73 81 -77 90 -11 21
97 -95 125 -134z m-1151 105 c-13 -11 -31 -20 -39 -20 -9 0 -1 9 18 19 45 25
51 25 21 1z m49 -3 c0 -7 -31 -125 -69 -262 -38 -138 -84 -305 -101 -373 -36
-136 -54 -166 -114 -193 -66 -30 -215 -22 -244 14 -6 7 -13 26 -17 42 -5 24
-4 27 5 13 14 -22 28 -23 50 -3 15 14 18 14 30 0 7 -8 8 -15 2 -15 -5 0 -12
-7 -16 -15 -4 -11 1 -15 19 -15 15 0 25 6 25 14 0 8 9 18 21 21 11 4 18 13 15
20 -2 7 7 48 20 91 13 44 38 133 55 198 16 65 36 131 44 146 15 29 99 79 111
67 10 -9 0 -52 -64 -291 -50 -183 -69 -226 -100 -226 -11 0 -12 -3 -3 -14 9
-11 9 -15 -1 -20 -7 -3 5 -3 27 0 76 11 72 0 201 494 25 95 72 269 81 303 6
20 23 23 23 4z m-408 -224 c-3 -16 -7 -22 -10 -15 -4 13 4 42 11 42 2 0 2 -12
-1 -27z m805 -45 c-3 -8 -6 -5 -6 6 -1 11 2 17 5 13 3 -3 4 -12 1 -19z m-762
-98 c-14 -84 -65 -254 -73 -246 -2 3 3 38 12 78 17 79 69 259 73 255 1 -2 -4
-41 -12 -87z m2072 18 c-3 -7 -5 -2 -5 12 0 14 2 19 5 13 2 -7 2 -19 0 -25z
m-2153 -23 c-4 -8 -8 -15 -10 -15 -2 0 -4 7 -4 15 0 8 4 15 10 15 5 0 7 -7 4
-15z m1423 -7 c-3 -8 -6 -5 -6 6 -1 11 2 17 5 13 3 -3 4 -12 1 -19z m718 -28
c-9 -41 -17 -33 -9 9 4 17 9 30 11 27 3 -2 2 -19 -2 -36z m-2168 -57 c-3 -10
-5 -4 -5 12 0 17 2 24 5 18 2 -7 2 -21 0 -30z m1412 -37 c-6 -26 -13 -45 -16
-43 -2 3 1 26 8 51 6 26 13 45 16 43 2 -3 -1 -26 -8 -51z m-694 -56 c-9 -41
-17 -33 -9 9 4 17 9 30 11 27 3 -2 2 -19 -2 -36z m-768 -92 c-3 -8 -6 -5 -6 6
-1 11 2 17 5 13 3 -3 4 -12 1 -19z m-10 -40 c-3 -8 -6 -5 -6 6 -1 11 2 17 5
13 3 -3 4 -12 1 -19z m880 -182 c-4 -9 -13 -16 -22 -16 -12 0 -14 6 -9 28 4
15 9 31 12 36 8 15 25 -31 19 -48z m-213 -148 c-14 -62 -27 -121 -30 -130 -5
-16 -24 -18 -215 -18 l-209 0 4 23 c19 93 29 126 35 122 4 -2 6 -29 3 -60 l-4
-55 179 0 180 0 28 93 c53 176 63 185 29 25z m-999 -102 c57 -23 80 -26 188
-27 141 -1 118 -14 -46 -25 -53 -4 -95 -9 -92 -12 3 -3 0 -11 -6 -19 -9 -10
-5 -14 20 -19 57 -12 25 -15 -39 -5 -39 7 -78 21 -102 38 l-40 27 24 17 23 17
-23 40 c-29 52 -28 61 3 24 14 -17 53 -41 90 -56z m525 69 c0 -2 -10 -9 -22
-15 -22 -11 -22 -10 -4 4 21 17 26 19 26 11z m1790 -48 c0 -2 -12 -14 -27 -28
l-28 -24 24 28 c23 25 31 32 31 24z m-1810 -101 c0 -3 -4 -8 -10 -11 -5 -3
-10 -1 -10 4 0 6 5 11 10 11 6 0 10 -2 10 -4z"/>
<path d="M9425 7530 l-140 -5 85 -8 c205 -18 314 -19 350 -3 l35 15 -82 1
c-45 0 -87 1 -95 3 -7 1 -76 0 -153 -3z"/>
<path d="M10047 7507 c-11 -12 -26 -36 -34 -54 -14 -28 -14 -35 1 -72 21 -53
21 -53 -11 -49 -27 3 -28 1 -26 -37 2 -47 -44 -291 -134 -720 -176 -838 -196
-943 -206 -1065 -3 -36 -3 -57 0 -47 4 14 8 16 19 6 17 -14 17 -22 3 -72 -9
-35 -13 -38 -36 -32 -21 5 -33 -3 -77 -49 -51 -52 -110 -96 -131 -96 -5 0 5 9
22 20 84 51 146 159 178 308 33 152 37 168 50 242 7 41 21 111 30 155 13 65
14 87 4 117 -7 21 -16 35 -20 32 -5 -3 -9 0 -9 6 0 6 -5 8 -10 5 -6 -4 -8 -11
-5 -16 4 -5 1 -9 -4 -9 -6 0 -11 4 -11 8 0 5 -7 9 -15 9 -13 0 -12 -4 2 -21
10 -12 11 -15 3 -8 -8 6 -18 12 -22 12 -4 0 -7 -6 -5 -12 1 -7 -4 -12 -12 -10
-9 2 -11 -3 -7 -14 5 -14 4 -15 -9 -4 -18 15 -20 0 -2 -20 6 -8 -1 -4 -17 10
-16 14 -25 18 -21 10 6 -10 1 -9 -13 3 -11 11 -26 16 -31 12 -6 -3 -15 4 -20
17 -6 13 -10 17 -11 8 0 -9 -6 -6 -15 10 -11 19 -14 21 -15 8 0 -10 -6 -18
-14 -18 -10 0 -21 -30 -36 -97 -12 -54 -30 -136 -40 -183 -11 -47 -25 -114
-31 -150 -13 -80 -41 -128 -85 -146 -41 -17 -203 -19 -239 -2 -35 16 -50 70
-37 129 l11 44 -6 -56 c-6 -63 7 -82 36 -55 10 9 22 16 28 16 6 0 13 20 16 44
4 25 27 141 51 258 25 117 54 256 65 308 86 412 150 713 161 752 13 46 31 56
89 51 50 -3 63 -16 56 -53 -15 -84 -112 -570 -150 -759 -25 -123 -45 -227 -43
-232 3 -9 12 29 93 371 42 180 45 165 5 -29 -16 -80 -41 -207 -55 -281 -14
-74 -32 -157 -40 -185 l-15 -50 4 68 c2 37 3 67 1 67 -3 0 -32 -121 -55 -235
-13 -63 -26 -105 -37 -112 -15 -12 -15 -13 -1 -13 9 0 20 5 23 10 3 6 11 10
17 10 6 0 1 -9 -12 -20 l-23 -20 27 0 c42 0 82 46 95 111 6 30 49 245 96 479
46 234 110 549 141 700 31 151 56 286 55 300 -2 45 -32 59 -114 53 -39 -3 -88
-1 -107 5 l-35 10 35 2 c75 5 134 15 154 27 6 4 5 0 -2 -9 -11 -14 -9 -16 12
-14 16 0 21 5 16 10 -6 6 2 15 22 23 20 8 35 10 41 4 13 -13 -1 -32 -20 -29
-22 4 -28 -18 -8 -26 20 -7 38 2 30 15 -5 8 9 13 18 7 7 -5 37 24 37 35 0 6
-7 2 -16 -9 -15 -19 -15 -19 -5 1 5 11 19 28 31 38 11 10 18 23 14 29 -4 7 -3
8 4 4 14 -8 0 -42 -19 -48 -7 -2 -4 -9 7 -18 14 -12 16 -12 9 -1 -5 9 -3 18 6
25 18 14 19 48 2 59 -8 5 -10 14 -6 20 12 20 14 49 3 62 -5 6 -6 15 -2 19 4 4
3 7 -3 5 -17 -4 -45 12 -39 22 3 6 -61 9 -165 9 -129 -1 -173 -5 -181 -15 -8
-10 -29 -13 -68 -10 -33 2 -63 -2 -71 -8 -12 -10 -13 -9 -6 2 6 11 2 12 -21 7
-47 -12 -92 -45 -122 -89 -52 -77 -58 -97 -141 -502 -59 -286 -93 -450 -102
-495 -5 -25 -18 -83 -28 -130 -11 -47 -31 -141 -45 -210 -106 -512 -136 -632
-136 -536 0 33 -2 37 -15 26 -11 -9 -15 -9 -15 -1 0 7 -4 9 -10 6 -5 -3 -10
-17 -10 -31 0 -13 -5 -24 -11 -24 -6 0 -9 9 -6 23 11 43 29 179 25 183 -8 8
-58 -262 -58 -313 0 -118 69 -223 181 -276 71 -32 117 -37 414 -38 229 -2 254
0 302 19 172 66 287 206 327 396 17 80 57 282 92 461 13 66 37 185 54 265 17
80 37 185 46 235 8 49 21 112 29 140 7 27 19 88 25 135 7 47 17 99 21 115 14
47 2 -241 -21 -510 -35 -411 -59 -706 -65 -805 -3 -52 -13 -173 -21 -269 -8
-95 -13 -175 -10 -178 2 -3 144 -6 315 -8 l311 -4 26 39 c18 27 24 46 19 62
-4 15 -3 19 3 10 6 -9 26 37 65 150 30 90 101 296 157 458 56 162 154 449 218
637 65 189 119 338 120 333 2 -6 -8 -70 -22 -143 -14 -72 -30 -157 -35 -187
-6 -30 -38 -185 -71 -345 -117 -554 -130 -626 -130 -698 1 -168 112 -281 301
-307 41 -5 187 -8 324 -7 237 2 253 3 310 26 87 34 153 84 213 160 61 77 99
149 106 206 l6 40 -11 -35 c-6 -19 -18 -43 -26 -52 -14 -15 -17 -15 -30 -2
-14 13 -22 8 -72 -45 -53 -57 -143 -111 -181 -110 -8 0 12 12 45 28 140 64
184 164 269 596 9 44 20 94 25 110 19 61 11 -12 -18 -160 -28 -143 -47 -295
-35 -267 11 25 53 60 57 49 2 -7 9 29 16 78 7 50 19 113 26 140 8 28 21 88 29
135 8 47 35 189 60 315 90 449 149 762 177 922 8 49 9 89 3 125 -8 47 -12 53
-34 53 -24 0 -25 -3 -31 -85 -6 -75 -21 -163 -99 -560 -10 -52 -33 -173 -51
-268 -18 -94 -34 -170 -37 -168 -5 6 16 161 33 241 11 51 25 146 26 180 0 5
-3 11 -8 12 -5 2 -8 -10 -7 -27 1 -16 -2 -30 -7 -30 -5 0 -9 10 -9 23 0 33 11
67 20 62 4 -2 5 8 1 23 -5 25 -6 25 -9 5 -2 -13 -10 -23 -18 -23 -8 0 -15 -4
-15 -10 -4 -28 -28 -79 -28 -60 -1 9 5 22 12 30 10 12 9 12 -5 1 -10 -7 -18
-23 -19 -35 0 -20 -1 -20 -8 -2 -7 19 -8 19 -14 1 -4 -10 -10 -15 -14 -12 -3
4 -12 2 -19 -4 -10 -8 -11 -16 -4 -29 11 -21 -4 -38 -16 -19 -5 8 -3 9 6 4 9
-5 11 -4 6 4 -10 15 -27 4 -24 -16 2 -9 -5 -17 -14 -18 -12 -2 -15 3 -13 18 4
21 4 22 -10 3 -8 -11 -15 -24 -15 -29 0 -5 -6 -7 -12 -4 -7 2 -12 10 -10 16 6
29 -16 -2 -28 -38 -15 -45 -27 -53 -32 -19 -8 56 -26 21 -52 -99 -16 -70 -36
-164 -47 -208 -23 -100 -73 -349 -95 -475 -33 -194 -60 -220 -227 -220 -101 0
-109 2 -132 25 -21 20 -25 33 -24 82 1 32 5 69 10 83 5 16 7 2 3 -42 -3 -37
-3 -72 1 -78 9 -15 65 20 65 42 0 9 34 187 76 395 42 208 82 410 90 448 7 39
17 90 22 115 6 25 22 101 37 170 15 69 31 148 37 175 5 28 17 58 25 68 36 39
120 4 108 -46 -3 -12 -14 -69 -25 -127 -36 -197 -69 -365 -135 -695 -36 -181
-73 -368 -81 -415 -8 -47 -17 -95 -21 -107 -4 -17 -1 -23 11 -23 9 0 19 -7 22
-15 4 -8 10 -15 15 -15 6 0 5 8 -1 19 -13 25 8 42 22 17 12 -22 25 -20 42 7
15 22 39 136 116 537 22 118 48 246 56 284 8 38 21 101 29 140 8 39 35 172 60
296 51 253 55 314 26 330 -11 5 -71 10 -134 10 -105 0 -115 -2 -135 -23 -31
-33 -35 -48 -106 -402 -91 -452 -115 -568 -121 -573 -9 -9 6 88 35 238 16 80
38 200 49 267 11 67 25 132 31 143 6 12 9 29 7 38 -3 12 -5 11 -6 -5 -2 -33
-16 -28 -29 10 -9 30 -10 30 -12 7 -1 -14 -2 -29 -1 -33 1 -5 -3 -6 -8 -2 -6
3 -8 12 -5 20 4 10 0 13 -15 10 -11 -2 -20 -1 -20 3 3 19 -3 23 -17 12 -8 -8
-14 -9 -13 -4 3 19 -14 53 -24 47 -6 -3 -7 -1 -3 6 4 6 12 9 17 6 5 -4 9 -1 9
5 0 6 4 9 9 6 11 -7 8 21 -4 31 -4 4 -5 2 0 -6 6 -10 4 -12 -4 -7 -8 6 -9 12
-2 20 8 9 7 13 -4 13 -8 0 -15 -5 -15 -11 0 -6 -5 -4 -10 4 -6 10 -4 22 5 37
14 20 14 22 -2 16 -15 -6 -16 -4 -5 9 10 13 9 18 -5 29 -17 13 -17 13 -3 -5
13 -17 13 -19 0 -14 -23 7 -25 38 -3 38 14 0 15 2 5 9 -8 4 -13 11 -12 15 1 4
-1 12 -3 19 -4 9 -6 9 -6 -1 -1 -8 -6 -10 -13 -6 -9 6 -9 3 0 -9 12 -14 12
-19 -2 -32 -15 -15 -16 -13 -16 19 0 19 4 37 9 40 5 3 11 15 14 26 3 11 1 17
-4 14 -6 -3 -8 6 -4 23 4 23 4 24 -4 8 -9 -19 -10 -19 -10 2 -1 12 5 23 12 26
9 3 9 8 1 16 -9 9 -14 1 -22 -32 -7 -24 -14 -53 -18 -63 -3 -11 1 -9 10 6 11
18 15 20 16 9 0 -23 -25 -70 -33 -62 -4 3 -7 2 -7 -3 0 -6 5 -15 12 -22 8 -8
8 -12 1 -12 -6 0 -11 -6 -10 -12 0 -7 -1 -24 -2 -38 -2 -23 -3 -24 -12 -5 -8
17 -9 16 -6 -7 3 -16 1 -28 -3 -28 -4 0 -12 -30 -18 -67 -10 -64 -56 -288
-100 -488 -32 -145 -98 -453 -147 -690 -25 -121 -52 -245 -60 -275 l-14 -55 4
65 c2 36 13 103 24 150 18 72 42 182 131 605 30 144 124 606 159 790 56 285
78 329 209 415 16 10 21 20 17 33 -13 33 -68 12 -141 -55 -48 -44 -65 -44 -45
-1 7 16 15 40 16 55 l4 27 -34 -20 c-47 -28 -66 -72 -180 -419 -54 -162 -154
-455 -222 -650 -69 -195 -131 -373 -138 -395 -7 -22 -60 -177 -117 -345 -58
-168 -117 -350 -133 -406 l-28 -101 -254 1 -254 1 5 65 c4 36 11 135 16 220 6
85 17 234 25 330 8 96 19 247 25 335 34 517 55 801 80 1097 6 64 10 151 10
192 l0 76 183 0 c100 0 193 3 206 7 23 6 23 5 8 -18 -17 -25 -39 -195 -57
-429 -12 -153 -27 -321 -34 -365 -2 -16 -9 -86 -16 -155 -6 -69 -20 -199 -30
-290 -11 -91 -22 -205 -25 -255 -4 -49 -8 -112 -11 -140 -3 -35 -1 -45 6 -35
5 8 10 23 10 33 0 10 8 43 19 75 40 126 64 208 65 227 1 11 7 29 13 39 6 10 8
28 5 39 -3 12 -1 18 5 14 7 -4 9 8 6 36 -3 26 7 93 25 177 51 230 244 849 250
804 2 -16 9 -20 26 -17 19 4 29 22 60 116 20 62 36 117 36 123 0 8 56 13 188
16 138 4 197 9 227 21 38 15 28 16 -210 16 l-250 0 -37 -48 c-38 -49 -48 -77
-184 -521 -19 -63 -43 -140 -54 -170 -10 -30 -27 -86 -39 -125 -12 -38 -27
-81 -35 -94 -13 -23 -14 -22 -21 25 -10 67 -7 177 6 249 6 33 12 74 14 90 1
17 7 55 14 85 6 30 18 98 26 150 9 52 22 122 30 155 7 33 16 93 18 133 l4 72
-251 0 c-248 0 -251 -1 -269 -23z m-812 -560 c-14 -67 -37 -171 -50 -232 -65
-303 -80 -368 -83 -347 -2 13 10 85 27 160 16 75 35 169 41 207 7 39 18 89 26
113 8 24 20 82 28 130 8 48 18 96 22 107 20 50 14 -23 -11 -138z m2123 -32
c-3 -3 -9 2 -12 12 -6 14 -5 15 5 6 7 -7 10 -15 7 -18z m732 -319 c14 -18 14
-18 -7 -6 -12 8 -19 18 -16 23 3 4 6 7 7 5 1 -2 8 -12 16 -22z m-325 -203 c-9
-43 -22 -107 -30 -143 -7 -36 -26 -125 -41 -198 -31 -144 -43 -161 -24 -31 6
44 8 94 5 111 -4 18 -3 33 4 37 8 6 54 166 89 311 4 18 7 20 10 8 2 -9 -4 -52
-13 -95z m-2668 -85 c-3 -7 -5 -2 -5 12 0 14 2 19 5 13 2 -7 2 -19 0 -25z
m-33 -164 c-15 -76 -31 -143 -37 -149 -6 -7 -8 -2 -3 15 4 14 16 77 27 140 22
125 27 145 34 138 3 -2 -7 -67 -21 -144z m3060 -59 l-14 -60 6 54 c3 30 8 59
11 64 11 19 11 -1 -3 -58z m-707 -7 c-3 -7 -5 -2 -5 12 0 14 2 19 5 13 2 -7 2
-19 0 -25z m-17 -93 c-7 -36 -14 -64 -17 -62 -2 3 1 35 8 71 6 37 14 65 16 62
3 -3 0 -35 -7 -71z m707 -2 c-3 -10 -5 -4 -5 12 0 17 2 24 5 18 2 -7 2 -21 0
-30z m-1140 -85 c-3 -8 -6 -5 -6 6 -1 11 2 17 5 13 3 -3 4 -12 1 -19z m-10
-60 c-3 -8 -6 -5 -6 6 -1 11 2 17 5 13 3 -3 4 -12 1 -19z m399 -68 c-8 -36
-15 -56 -15 -44 -1 29 23 142 26 124 2 -8 -3 -44 -11 -80z m-421 -57 c-9 -49
-20 -106 -25 -128 -5 -22 -12 -59 -15 -82 -8 -52 -25 -67 -25 -21 0 37 73 343
78 328 2 -5 -4 -49 -13 -97z m-1948 65 c-3 -8 -6 -5 -6 6 -1 11 2 17 5 13 3
-3 4 -12 1 -19z m-10 -50 c-3 -8 -6 -5 -6 6 -1 11 2 17 5 13 3 -3 4 -12 1 -19z
m700 -240 c-3 -8 -6 -5 -6 6 -1 11 2 17 5 13 3 -3 4 -12 1 -19z m-988 -252
c67 -35 205 -49 440 -44 124 2 213 1 198 -3 -15 -4 -140 -11 -278 -15 -242 -7
-251 -8 -259 -28 -5 -15 -3 -23 9 -28 11 -5 8 -7 -12 -7 -36 -1 -109 30 -84
36 29 7 19 40 -18 63 -37 23 -77 70 -89 105 -4 11 9 1 29 -23 21 -23 49 -49
64 -56z m2325 39 c3 -8 22 -23 43 -33 75 -38 146 -46 415 -47 142 0 246 -3
233 -7 -13 -3 -141 -9 -285 -13 -246 -7 -261 -9 -271 -28 -8 -15 -8 -22 2 -29
20 -14 -68 0 -91 14 -15 10 -16 15 -7 26 19 24 16 41 -11 61 -33 23 -71 84
-48 75 8 -3 17 -12 20 -19z m-1624 -65 c-8 -5 -19 -10 -25 -10 -5 0 -3 5 5 10
8 5 20 10 25 10 6 0 3 -5 -5 -10z"/>
<path d="M11600 7513 c29 -14 80 -17 291 -19 l257 -3 61 -31 c51 -25 65 -29
83 -19 21 11 21 12 2 26 -10 9 -39 25 -64 37 -43 20 -61 21 -355 23 -293 2
-308 1 -275 -14z"/>
<path d="M4709 7504 c-12 -15 -11 -18 5 -28 10 -6 36 -26 58 -43 41 -34 62
-39 87 -24 20 13 -12 56 -64 86 -49 29 -68 31 -86 9z"/>
<path d="M9836 7494 c-4 -9 -5 -18 -4 -19 49 -31 83 -44 104 -39 34 9 30 20
-19 49 -51 29 -72 32 -81 9z"/>
<path d="M3944 7428 c-5 -8 -2 -9 9 -5 9 3 19 2 22 -4 7 -11 25 -3 25 12 0 13
-47 11 -56 -3z"/>
<path d="M4672 7433 c-10 -4 -9 -9 5 -20 10 -8 13 -12 6 -9 -21 11 -22 -10 -1
-23 16 -10 18 -10 12 0 -5 9 -2 10 10 6 9 -4 15 -3 12 2 -3 5 4 11 16 15 15 3
19 9 13 15 -13 13 -57 21 -73 14z"/>
<path d="M7911 7381 c-7 -12 -9 -21 -5 -21 3 0 0 -8 -7 -17 -12 -16 -12 -17 2
-6 9 7 19 11 22 8 4 -3 5 -2 2 2 -3 3 0 12 7 20 8 10 8 17 1 24 -8 8 -14 5
-22 -10z m10 -14 c-10 -9 -11 -8 -5 6 3 10 9 15 12 12 3 -3 0 -11 -7 -18z"/>
<path d="M9770 7370 c-19 -12 -21 -37 -4 -44 17 -7 18 6 2 23 -9 10 -9 12 -1
7 6 -3 15 -1 18 5 10 15 2 20 -15 9z"/>
<path d="M7962 7350 c0 -14 2 -19 5 -12 2 6 2 18 0 25 -3 6 -5 1 -5 -13z"/>
<path d="M9700 7330 c-12 -7 -10 -9 7 -7 12 0 19 5 17 9 -6 10 -6 10 -24 -2z"/>
<path d="M5307 7258 c-8 -29 -30 -118 -47 -198 -18 -80 -40 -181 -50 -225 -11
-44 -32 -138 -49 -210 -56 -239 -99 -429 -131 -570 -30 -136 -53 -233 -105
-447 -86 -359 -120 -528 -111 -562 l6 -25 336 0 c333 0 336 0 417 26 73 23 88
32 147 92 47 46 73 82 88 121 19 50 89 329 156 620 71 313 122 514 125 490 1
-3 -15 -80 -34 -170 -20 -91 -49 -226 -65 -300 -16 -74 -35 -162 -44 -195 -51
-201 -87 -402 -82 -453 11 -99 63 -172 144 -204 50 -19 80 -22 241 -26 180 -4
185 -3 252 23 49 19 80 39 112 74 73 78 76 87 147 426 29 139 55 261 115 540
13 61 34 164 48 230 14 66 33 149 41 185 16 68 21 187 8 206 -4 7 -15 8 -29 3
-17 -6 -23 -16 -23 -40 0 -37 -82 -447 -146 -732 -54 -241 -91 -430 -100 -510
-6 -49 -4 -60 11 -71 16 -12 17 -17 6 -44 -10 -23 -18 -29 -33 -27 -14 3 -38
-11 -72 -41 -85 -74 -126 -84 -341 -84 -195 0 -194 0 -186 -43 3 -14 -62 4
-93 26 -28 20 -28 21 -7 28 25 10 25 12 5 51 -16 31 -10 32 26 3 39 -30 106
-40 275 -39 190 1 238 10 290 55 63 56 94 152 159 494 23 121 41 253 30 213
-7 -22 -23 -23 -30 -3 -9 23 -21 18 -28 -11 -4 -15 -10 -24 -13 -20 -3 3 -12
1 -20 -5 -7 -6 -13 -8 -13 -4 0 4 -6 3 -13 -3 -16 -14 -46 -9 -57 8 -5 8 -12
11 -16 7 -12 -12 -61 -203 -116 -451 -11 -54 -42 -92 -82 -102 -38 -9 -133 5
-151 22 -20 20 -20 45 0 38 8 -4 22 -1 29 5 10 8 16 9 21 1 14 -23 23 -7 29
55 4 36 11 77 16 91 6 14 19 71 29 127 11 56 28 140 40 187 11 47 31 137 45
200 54 247 78 345 88 358 15 18 56 15 62 -5 3 -10 -6 -67 -20 -128 -14 -60
-38 -171 -54 -245 -16 -74 -43 -198 -59 -275 -17 -77 -41 -189 -54 -250 -30
-141 -25 -172 20 -122 14 15 25 54 37 127 10 58 28 146 41 195 13 50 35 144
50 210 15 66 38 165 50 220 55 234 87 415 77 428 -12 14 -169 16 -190 3 -20
-12 -13 2 11 24 19 18 19 20 3 14 -14 -5 -17 -4 -12 4 4 7 14 12 22 12 8 0 13
4 10 9 -3 5 12 8 33 7 36 -2 39 0 37 23 -1 14 -5 31 -9 38 -8 13 -47 6 -47 -9
0 -5 5 -6 12 -2 7 4 8 3 4 -5 -6 -8 -12 -9 -20 -2 -17 14 -29 1 -14 -16 9 -11
7 -12 -7 -7 -14 6 -16 4 -10 -6 5 -9 4 -11 -4 -6 -6 4 -9 12 -6 17 3 5 -1 6
-9 3 -8 -3 -30 -6 -48 -7 -28 -2 -33 -6 -36 -29 -2 -20 -9 -28 -23 -28 -11 0
-22 -7 -25 -15 -4 -8 -10 -12 -15 -9 -5 3 -9 -1 -9 -8 0 -9 -3 -9 -10 2 -9 13
-10 13 -10 -1 0 -11 -7 -14 -27 -12 -28 4 -28 4 -56 -119 -35 -149 -55 -245
-66 -318 -5 -30 -24 -118 -44 -195 -48 -194 -112 -464 -134 -562 -16 -75 -32
-93 -33 -35 0 13 -4 21 -9 18 -12 -8 -22 35 -12 48 5 6 14 36 21 66 15 66 29
95 30 65 1 -11 12 23 26 75 13 52 22 100 20 105 -5 15 -2 30 6 28 4 -2 3 9 -2
23 -13 34 -13 39 5 24 12 -10 15 -10 15 2 0 8 -4 18 -10 24 -6 6 -5 15 1 24 9
13 10 12 5 -2 -3 -10 -1 -18 4 -18 6 0 10 12 10 26 0 14 5 34 10 44 6 11 17
50 24 87 8 37 26 112 40 167 26 98 106 473 106 495 0 7 -4 9 -10 6 -5 -3 -10
-1 -10 4 0 19 -18 12 -25 -10 -4 -11 -9 -19 -11 -16 -5 5 29 171 51 247 18 60
14 212 -6 236 -20 25 -49 -6 -49 -51 0 -22 -7 -69 -15 -105 -46 -206 -98 -429
-106 -455 -5 -16 -23 -91 -40 -165 -39 -168 -46 -199 -102 -440 -111 -474
-122 -540 -93 -540 26 0 5 -39 -24 -45 -15 -3 -42 -22 -61 -42 -42 -44 -119
-94 -180 -116 -41 -16 -83 -17 -353 -15 -301 3 -307 3 -302 23 3 11 13 52 22
90 8 39 26 111 39 160 13 50 31 128 40 175 9 47 22 105 30 130 7 25 41 162 75
305 34 143 80 332 102 420 21 88 59 252 84 365 24 113 56 253 69 311 14 58 25
113 25 122 0 15 27 16 293 16 162 0 301 3 310 7 51 19 -12 24 -312 24 l-328 0
-16 -52z m1108 -814 c-14 -66 -32 -150 -41 -189 -8 -38 -28 -131 -45 -205 -17
-74 -35 -155 -40 -179 -5 -24 -12 -47 -15 -50 -8 -8 4 67 26 164 37 157 89
401 101 475 12 74 26 116 35 107 3 -3 -7 -58 -21 -123z m-308 4 c-3 -8 -6 -5
-6 6 -1 11 2 17 5 13 3 -3 4 -12 1 -19z m-10 -50 c-3 -8 -6 -5 -6 6 -1 11 2
17 5 13 3 -3 4 -12 1 -19z m170 -630 c-3 -7 -5 -2 -5 12 0 14 2 19 5 13 2 -7
2 -19 0 -25z m-1283 -38 c-6 -6 -10 -3 -10 10 0 13 4 16 10 10 7 -7 7 -13 0
-20z m1273 -2 c-3 -8 -6 -5 -6 6 -1 11 2 17 5 13 3 -3 4 -12 1 -19z m-10 -50
c-3 -7 -5 -2 -5 12 0 14 2 19 5 13 2 -7 2 -19 0 -25z m-24 -116 c-8 -46 -18
-81 -21 -78 -4 5 12 107 24 149 13 43 11 6 -3 -71z"/>
<path d="M7952 7290 c0 -14 2 -19 5 -12 2 6 2 18 0 25 -3 6 -5 1 -5 -13z"/>
<path d="M3450 7271 c0 -5 -3 -18 -7 -28 -6 -17 -6 -17 10 -1 19 18 22 38 7
38 -5 0 -10 -4 -10 -9z"/>
<path d="M6089 7244 c-19 -23 11 -49 46 -40 23 6 25 9 14 22 -23 28 -46 35
-60 18z"/>
<path d="M10204 7235 c2 -33 11 -40 14 -10 1 13 -2 26 -7 29 -4 3 -7 -6 -7
-19z"/>
<path d="M7776 7234 c-3 -8 -10 -13 -15 -9 -5 3 -12 1 -15 -4 -4 -5 -2 -12 3
-15 5 -4 12 -2 16 4 4 6 10 8 14 6 4 -3 8 4 8 15 2 23 -3 25 -11 3z"/>
<path d="M5385 7200 c-3 -5 -1 -10 4 -10 6 0 11 5 11 10 0 6 -2 10 -4 10 -3 0
-8 -4 -11 -10z"/>
<path d="M5776 7168 c3 -5 10 -6 15 -3 13 9 11 12 -6 12 -8 0 -12 -4 -9 -9z"/>
<path d="M5556 7159 c2 -4 14 -5 27 -3 20 4 20 4 2 -5 -11 -4 -27 -5 -36 0 -9
5 -19 5 -23 2 -12 -12 -111 -11 -118 1 -5 7 -8 6 -8 -4 0 -8 9 -21 21 -28 14
-9 18 -17 11 -25 -17 -21 -19 -102 -2 -92 6 3 10 -4 10 -17 0 -13 5 -30 11
-38 8 -11 9 -7 5 18 -4 22 -2 31 5 26 6 -3 5 4 -3 15 -11 18 -11 23 2 31 12 8
12 10 1 10 -8 0 -11 7 -8 20 3 11 1 20 -3 20 -13 0 -5 33 10 38 9 3 10 0 4 -9
-7 -12 -5 -12 9 0 13 10 17 10 17 1 0 -9 3 -10 13 -1 11 9 14 6 13 -12 -1 -12
-5 -28 -9 -34 -6 -9 -3 -11 9 -6 10 4 15 2 11 -3 -3 -6 -2 -16 4 -24 7 -13 9
-12 9 1 0 9 9 19 20 22 25 6 26 34 3 40 -12 3 -10 5 7 6 35 1 105 8 105 11 0
1 17 3 37 4 33 1 54 19 25 22 -6 1 -16 3 -22 4 -5 1 -23 1 -38 0 -15 -1 -35 4
-44 12 -12 9 -15 9 -9 1 4 -7 3 -13 -3 -13 -5 0 -13 4 -16 10 -3 5 -17 9 -30
8 -13 -1 -22 -5 -19 -9z"/>
<path d="M5921 7126 c-10 -12 -8 -13 8 -9 12 3 18 9 15 14 -7 12 -10 11 -23
-5z"/>
<path d="M5785 7123 c-11 -3 -26 -10 -32 -15 -7 -6 -19 -8 -26 -5 -8 3 -14 0
-14 -7 0 -7 11 -13 24 -14 15 -1 23 4 23 13 0 8 5 15 11 15 5 0 7 -6 3 -12 -5
-10 -4 -10 6 -1 11 10 17 10 29 0 10 -8 12 -8 8 -1 -4 7 0 15 9 18 12 5 15 2
10 -10 -5 -14 -4 -15 9 -4 8 7 24 10 35 7 11 -3 20 -1 20 4 0 5 -12 9 -27 10
-16 0 -37 2 -48 3 -11 2 -29 1 -40 -1z"/>
<path d="M5675 7110 c-4 -6 -10 -8 -15 -5 -5 3 -11 1 -15 -5 -4 -6 -11 -7 -17
-4 -6 4 -8 3 -5 -3 7 -11 63 -10 74 2 5 4 2 4 -6 0 -11 -6 -13 -4 -8 8 7 19 2
23 -8 7z"/>
<path d="M5376 7078 c-19 -93 -30 -131 -34 -120 -2 7 1 27 7 44 6 17 10 43 10
57 -1 28 -3 22 -28 -89 -5 -25 -28 -117 -51 -205 -63 -245 -99 -425 -85 -425
8 0 9 -18 4 -65 -8 -64 -25 -112 -36 -101 -3 3 0 12 6 20 9 10 10 20 3 33 -9
14 -11 11 -17 -22 -4 -22 -11 -47 -15 -55 -5 -9 -20 -67 -35 -130 -47 -201
-52 -222 -88 -365 -44 -169 -107 -444 -107 -462 0 -11 51 -12 273 -8 317 6
356 10 418 41 88 44 135 117 169 264 12 52 32 140 45 195 32 137 79 394 59
323 -6 -21 -17 -22 -44 -5 -17 10 -22 9 -30 -3 -8 -13 -10 -13 -10 0 0 10 -5
7 -16 -8 -22 -32 -32 -27 -37 16 -3 33 -5 34 -12 14 -6 -18 -10 -20 -16 -10
-7 10 -9 9 -9 -4 0 -9 6 -19 13 -21 9 -4 9 -6 -1 -6 -7 -1 -18 13 -23 29 -6
17 -15 30 -20 30 -4 0 -6 8 -2 18 3 9 3 14 0 11 -9 -7 -44 -137 -107 -389 -28
-113 -59 -216 -69 -230 -30 -41 -59 -50 -168 -50 l-103 0 0 27 c0 15 14 85 31
157 66 276 88 373 99 441 7 39 37 171 67 295 50 208 75 313 102 432 14 59 14
91 1 83 -6 -3 -7 1 -4 9 3 9 3 23 0 32 -5 14 -9 13 -24 -7 -13 -15 -19 -17
-20 -8 0 8 -3 23 -6 34 -2 11 -5 24 -5 28 -1 5 -6 5 -11 2 -6 -4 -8 -11 -5
-16 4 -5 1 -9 -4 -9 -6 0 -11 6 -12 13 -1 6 -2 26 -3 42 -1 17 -7 40 -14 52
-7 12 -12 35 -12 52 0 37 -18 51 -24 19z m101 -253 c0 -8 -4 -12 -9 -9 -5 3
-6 10 -3 15 9 13 12 11 12 -6z m333 -856 c0 -4 -7 -6 -15 -3 -8 4 -15 10 -15
15 0 4 7 6 15 3 8 -4 15 -10 15 -15z"/>
<path d="M11409 7013 c-13 -16 -12 -17 4 -4 9 7 17 15 17 17 0 8 -8 3 -21 -13z"/>
<path d="M5605 6995 c-2 -5 -6 -21 -9 -35 -3 -14 -34 -140 -70 -280 -124 -491
-185 -750 -242 -1025 -19 -93 -38 -180 -41 -193 -5 -21 -3 -22 22 -12 14 5 37
10 51 10 20 0 24 5 24 33 0 17 5 48 10 67 6 19 31 123 56 230 25 107 58 249
74 315 16 66 59 248 95 405 36 157 69 295 75 308 7 17 18 22 45 22 61 0 70 62
-104 -675 -17 -71 -46 -195 -65 -275 -19 -80 -47 -201 -62 -270 -15 -69 -34
-134 -43 -144 -9 -11 -10 -16 -3 -12 7 4 19 3 27 -4 11 -9 17 -6 28 12 8 13
50 167 92 343 42 176 98 410 125 520 27 110 58 241 69 290 12 50 32 139 46
198 28 123 30 150 12 165 -16 14 -209 20 -212 7z"/>
<path d="M2280 6979 c0 -5 -4 -8 -9 -5 -12 8 -27 -13 -35 -46 -4 -17 -2 -28 4
-28 5 0 10 5 10 11 0 5 5 7 10 4 6 -3 10 -1 10 4 0 6 -5 11 -11 11 -5 0 -7 5
-4 10 4 6 11 7 17 4 11 -7 28 13 28 34 0 6 -4 12 -10 12 -5 0 -10 -5 -10 -11z"/>
<path d="M11523 6945 c0 -8 4 -12 9 -9 5 3 6 10 3 15 -9 13 -12 11 -12 -6z"/>
<path d="M11453 6924 c-5 -13 -7 -13 -14 -2 -7 10 -9 9 -9 -4 0 -28 16 -29 28
-3 7 14 9 25 6 25 -2 0 -7 -7 -11 -16z"/>
<path d="M11466 6901 c-3 -5 1 -14 8 -20 10 -9 16 -9 21 -1 4 6 1 9 -7 8 -7
-2 -12 3 -10 10 2 14 -4 16 -12 3z"/>
<path d="M6445 6857 c24 -15 277 -13 303 2 12 7 -35 10 -153 10 -138 0 -166
-2 -150 -12z"/>
<path d="M6850 6822 c0 -20 29 -52 47 -52 6 0 16 6 22 14 9 11 6 18 -18 35
-36 26 -51 27 -51 3z"/>
<path d="M6247 6800 c-31 -25 -34 -35 -10 -44 24 -10 58 27 46 48 -8 15 -12
15 -36 -4z"/>
<path d="M12211 6744 c0 -11 3 -14 6 -6 3 7 2 16 -1 19 -3 4 -6 -2 -5 -13z"/>
<path d="M6640 6731 c0 -6 -7 -8 -16 -4 -9 3 -20 0 -25 -8 -7 -11 -9 -11 -9
-1 0 7 -4 11 -9 7 -12 -7 -5 -49 9 -53 24 -8 7 -22 -27 -24 l-38 -1 35 -4 c24
-3 38 0 46 12 11 15 13 15 18 -2 4 -10 18 -27 33 -37 14 -11 23 -15 20 -9 -4
6 0 13 8 17 11 4 15 -2 15 -23 0 -16 6 -31 14 -34 8 -3 13 1 12 11 -1 11 7 17
24 17 15 1 24 6 22 14 -1 7 2 10 7 7 5 -4 12 0 14 6 4 10 6 10 6 0 1 -7 6 -10
13 -6 8 5 9 2 5 -9 -3 -9 -2 -19 4 -22 5 -4 9 -3 8 2 -3 20 2 34 11 28 6 -4 7
-11 4 -17 -5 -7 -2 -8 5 -4 7 5 10 10 7 13 -2 3 -1 16 5 30 6 16 6 22 -1 18
-6 -3 -10 -13 -10 -21 0 -8 -5 -12 -10 -9 -6 4 -7 11 -4 17 4 7 2 8 -5 4 -6
-4 -8 -12 -5 -18 5 -7 2 -8 -5 -4 -7 5 -10 15 -7 23 3 8 2 12 -3 9 -5 -3 -14
1 -20 8 -8 9 -8 16 -2 20 5 4 12 2 16 -4 4 -6 11 -8 16 -4 5 3 7 10 3 15 -3 5
-9 7 -14 4 -5 -3 -13 2 -18 11 -5 10 -15 14 -21 10 -9 -6 -9 -11 0 -22 6 -8 8
-14 4 -14 -5 0 0 -10 11 -22 12 -15 13 -18 3 -10 -9 7 -24 10 -33 6 -19 -7
-21 7 -3 25 10 11 10 13 0 7 -7 -4 -13 -3 -13 2 0 5 -8 12 -18 14 -11 3 -19 0
-19 -8 0 -7 4 -11 9 -8 4 3 13 2 19 -2 8 -4 7 -9 -2 -15 -9 -5 -26 5 -51 32
-21 23 -38 36 -38 30z"/>
<path d="M6800 6720 c0 -5 5 -10 11 -10 5 0 7 5 4 10 -3 6 -8 10 -11 10 -2 0
-4 -4 -4 -10z"/>
<path d="M6875 6690 c-3 -5 -1 -10 4 -10 6 0 11 5 11 10 0 6 -2 10 -4 10 -3 0
-8 -4 -11 -10z"/>
<path d="M6336 6658 c3 -4 9 -8 15 -8 5 0 9 4 9 8 0 5 -7 9 -15 9 -8 0 -12 -4
-9 -9z"/>
<path d="M6878 6645 c-9 -19 -9 -28 0 -37 9 -9 12 -7 13 8 0 10 2 27 4 37 5
25 -4 21 -17 -8z"/>
<path d="M6780 6595 c-7 -9 -11 -17 -9 -20 3 -2 10 5 17 15 14 24 10 26 -8 5z"/>
<path d="M3247 6583 c-3 -4 1 -17 9 -28 10 -13 14 -15 14 -4 0 20 -16 43 -23
32z"/>
<path d="M6681 6565 c-1 -16 -4 -48 -8 -69 -4 -28 -3 -37 5 -32 6 4 9 13 6 21
-3 7 -1 22 5 33 6 12 7 30 1 48 l-8 29 -1 -30z"/>
<path d="M6746 6573 c-6 -14 -5 -15 5 -6 7 7 10 15 7 18 -3 3 -9 -2 -12 -12z"/>
<path d="M3293 6543 c-3 -10 -8 -22 -11 -27 -3 -5 0 -6 5 -3 11 7 25 47 17 47
-3 0 -7 -8 -11 -17z"/>
<path d="M2225 6471 c-56 -32 -116 -90 -148 -142 -11 -19 -14 -28 -7 -21 8 6
25 12 38 12 15 0 43 17 71 43 25 23 62 54 81 68 29 22 33 29 22 42 -10 12 -10
16 0 20 7 3 9 6 3 6 -5 0 -33 -12 -60 -28z"/>
<path d="M3281 6484 c0 -11 3 -14 6 -6 3 7 2 16 -1 19 -3 4 -6 -2 -5 -13z"/>
<path d="M3271 6444 c0 -11 3 -14 6 -6 3 7 2 16 -1 19 -3 4 -6 -2 -5 -13z"/>
<path d="M3104 6403 c2 -9 8 -18 15 -19 6 -1 7 0 1 3 -5 2 -8 9 -5 13 3 5 1
11 -4 14 -5 4 -8 -2 -7 -11z"/>
<path d="M3262 6400 c0 -14 2 -19 5 -12 2 6 2 18 0 25 -3 6 -5 1 -5 -13z"/>
<path d="M6641 6354 c0 -11 3 -14 6 -6 3 7 2 16 -1 19 -3 4 -6 -2 -5 -13z"/>
<path d="M5176 6303 c-6 -14 -5 -15 5 -6 7 7 10 15 7 18 -3 3 -9 -2 -12 -12z"/>
<path d="M9712 6080 c0 -19 2 -27 5 -17 2 9 2 25 0 35 -3 9 -5 1 -5 -18z"/>
<path d="M10061 6075 c0 -22 -5 -67 -11 -100 -8 -51 -60 -717 -60 -770 0 -17
9 -18 133 -12 72 4 175 7 227 7 l95 0 43 128 c24 70 54 156 67 192 30 83 86
256 96 295 4 17 17 56 29 88 12 31 20 63 17 70 -2 6 -7 -3 -11 -20 -7 -31 -24
-45 -27 -23 -1 6 -2 14 -3 19 0 6 -7 16 -13 22 -10 10 -15 6 -24 -20 -6 -17
-14 -30 -17 -27 -3 3 -11 1 -19 -6 -8 -6 -13 -7 -12 -2 4 24 -2 44 -15 44 -14
0 -31 -27 -27 -43 1 -5 -3 -6 -9 -2 -5 3 -10 2 -10 -3 0 -5 -7 -9 -15 -9 -18
0 -18 2 -4 28 8 16 7 25 -7 40 -9 10 -21 16 -27 12 -6 -4 -8 6 -4 28 l6 34
-14 -30 c-8 -16 -14 -38 -15 -47 0 -9 -4 -20 -10 -23 -5 -3 -10 -14 -10 -23 1
-15 2 -15 15 2 8 11 15 15 15 8 0 -6 -8 -17 -18 -24 -10 -7 -21 -22 -25 -33
-18 -61 -60 -171 -69 -180 -7 -7 -9 39 -5 145 3 85 2 164 -3 175 -7 19 -8 18
-20 -7 -17 -37 -26 -35 -34 5 -4 17 -10 27 -14 22 -4 -6 -14 -10 -22 -10 -8 1
-27 -2 -42 -6 -16 -4 -28 -4 -28 1 0 4 -8 7 -17 6 -10 -2 -21 2 -25 8 -5 7 -8
7 -8 -3 0 -11 -3 -11 -15 -1 -8 7 -16 9 -17 4 0 -5 -4 11 -8 36 l-7 45 -2 -40z"/>
<path d="M10510 5989 c0 -5 5 -7 10 -4 6 3 10 8 10 11 0 2 -4 4 -10 4 -5 0
-10 -5 -10 -11z"/>
<path d="M8567 5910 c-4 -14 -6 -36 -6 -50 1 -18 4 -14 10 14 10 44 6 75 -4
36z"/>
<path d="M8546 5784 c-4 -20 -5 -38 -3 -40 3 -3 8 11 11 32 4 20 5 38 3 40 -3
3 -8 -11 -11 -32z"/>
<path d="M8606 5774 c-4 -9 -4 -19 -1 -22 2 -3 7 3 11 12 4 9 4 19 1 22 -2 3
-7 -3 -11 -12z"/>
<path d="M8551 5629 c-6 -18 -11 -41 -10 -53 0 -12 6 2 14 29 15 57 13 72 -4
24z"/>
<path d="M8572 5605 c0 -16 2 -22 5 -12 2 9 2 23 0 30 -3 6 -5 -1 -5 -18z"/>
<path d="M161 5544 c0 -11 3 -14 6 -6 3 7 2 16 -1 19 -3 4 -6 -2 -5 -13z"/>
<path d="M152 5500 c0 -14 2 -19 5 -12 2 6 2 18 0 25 -3 6 -5 1 -5 -13z"/>
<path d="M264 4704 c15 -58 161 -247 194 -249 11 -1 39 -17 63 -37 24 -19 68
-48 97 -63 28 -16 50 -30 48 -32 -8 -8 -100 37 -136 66 -53 41 -71 48 -26 10
82 -70 175 -111 305 -134 125 -22 1611 -22 1611 0 0 8 -23 47 -51 87 -28 40
-89 132 -137 203 -47 72 -97 141 -111 154 l-25 24 -384 -6 c-211 -4 -388 -10
-395 -14 -24 -15 41 -21 222 -22 101 -1 182 -4 178 -7 -9 -9 -585 -13 -707 -4
l-105 7 103 3 c56 1 107 4 112 5 6 1 26 3 45 4 19 0 35 5 35 9 0 11 45 9 -484
18 l-459 7 7 -29z m296 -250 c0 -2 -9 0 -20 6 -11 6 -20 13 -20 16 0 2 9 0 20
-6 11 -6 20 -13 20 -16z"/>
<path d="M2300 4720 c0 -5 5 -12 10 -15 6 -3 10 -14 10 -24 0 -16 125 -195
248 -355 51 -67 61 -76 80 -76 84 -3 2227 2 2257 5 181 16 3441 24 4305 10
190 -3 434 -7 542 -9 l197 -3 30 31 c16 17 55 67 87 112 33 44 86 116 119 159
80 104 82 106 89 136 5 24 3 27 -30 34 -44 8 -637 4 -679 -5 -58 -12 124 -24
386 -24 228 -1 253 -3 238 -16 -9 -8 -30 -33 -46 -55 -61 -86 -197 -255 -206
-255 -6 0 -6 5 0 13 171 224 197 263 187 279 -6 9 -438 9 -472 0 -13 -4 -24
-11 -25 -17 -2 -15 -39 -55 -46 -50 -4 2 -18 -5 -31 -16 -15 -11 -19 -19 -11
-19 7 0 -12 -25 -43 -55 -38 -37 -56 -63 -56 -79 0 -15 -7 -26 -17 -29 -10 -2
45 -8 122 -13 l140 -9 -110 -5 c-149 -8 -1004 -7 -1135 0 -93 5 -83 6 90 9
174 3 404 15 357 19 -10 1 -15 7 -12 12 4 6 11 8 16 4 5 -3 8 -2 7 3 -4 11 38
64 45 57 3 -3 8 5 12 18 4 13 12 26 17 29 4 3 10 15 13 28 2 12 14 31 27 41
23 19 23 19 3 34 -19 14 -19 15 8 21 48 12 29 22 -50 26 -43 2 -463 4 -933 3
-719 0 -860 -3 -884 -15 -16 -8 -28 -18 -26 -23 1 -5 -5 -13 -14 -18 -9 -5
-16 -19 -16 -30 0 -12 -3 -18 -6 -15 -11 11 -44 -19 -65 -59 -29 -56 -41 -86
-30 -80 5 4 8 -1 7 -11 -2 -9 -11 -20 -21 -23 -25 -9 263 -19 590 -22 218 -2
239 -3 130 -8 -160 -8 -2265 -4 -2273 4 -3 3 124 7 281 7 158 1 301 3 317 4
17 1 76 3 133 4 67 1 97 4 87 11 -14 8 -8 25 9 25 12 0 64 65 58 72 -3 3 1 12
9 21 9 9 13 24 10 37 -4 15 -1 25 9 29 8 3 15 15 15 26 0 14 -4 19 -12 15 -7
-4 -2 2 12 13 l24 20 -44 6 c-84 10 -304 16 -604 16 -165 0 -297 2 -295 4 2 2
213 6 469 10 256 4 474 8 485 11 11 2 43 4 70 5 44 2 47 3 20 10 -42 11 -2572
11 -2615 1 -33 -9 -32 -9 20 -11 30 -1 64 -3 75 -6 11 -2 274 -7 585 -10 311
-4 567 -8 569 -10 2 -2 -187 -4 -420 -5 -233 0 -514 -4 -624 -8 -220 -7 -245
-14 -237 -60 3 -14 9 -28 13 -32 5 -3 4 -21 -1 -40 -10 -32 -4 -116 7 -105 3
3 12 -2 21 -10 13 -14 13 -17 1 -25 -9 -6 13 -9 61 -10 41 -1 156 -5 255 -8
l180 -7 -185 -2 c-102 -2 -237 -5 -301 -8 -159 -9 -847 8 -724 17 50 4 131 8
180 9 58 1 81 5 65 9 -14 4 -24 13 -23 19 2 7 -1 12 -6 12 -5 0 -19 33 -32 73
-13 39 -27 73 -31 75 -4 2 -18 12 -30 23 -18 14 -20 21 -10 27 9 6 1 13 -27
24 -28 11 -82 17 -178 19 -162 3 -616 -1 -621 -6 -4 -4 90 -142 155 -228 24
-33 41 -62 38 -65 -4 -4 -10 0 -15 8 -4 8 -51 72 -104 143 -52 70 -100 136
-106 147 -11 20 -7 20 252 20 145 0 304 3 353 5 50 3 136 8 192 11 57 3 101
10 98 15 -8 12 -1015 11 -1015 -1z m7883 -123 c4 3 7 4 7 1 0 -3 -7 -11 -16
-18 -12 -11 -15 -11 -12 1 2 8 -3 13 -10 11 -8 -1 -11 2 -7 8 5 8 11 8 19 1 7
-6 16 -8 19 -4z m-285 -224 c-10 -2 -28 -2 -40 0 -13 2 -5 4 17 4 22 1 32 -1
23 -4z"/>
<path d="M7180 4720 c-52 -15 418 -25 1130 -25 404 0 746 3 760 7 14 4 41 7
60 8 29 1 31 3 15 10 -24 10 -1930 11 -1965 0z"/>
<path d="M10494 4722 c-43 -4 -74 -38 -171 -187 -47 -71 -106 -157 -131 -190
-25 -32 -45 -66 -46 -75 -1 -17 153 -19 1064 -10 l515 5 82 33 c46 18 85 37
88 42 3 5 -11 2 -31 -6 -53 -22 -52 -11 2 16 40 19 101 64 178 129 18 15 18
15 6 -9 -12 -23 -12 -24 3 -11 10 7 17 18 17 23 0 5 20 32 44 60 41 47 91 133
98 168 3 13 -96 15 -842 15 -465 0 -859 -1 -876 -3z m966 -42 c-87 -8 -529 -4
-538 4 -3 3 134 5 304 4 186 -1 279 -4 234 -8z m530 -184 c0 -2 -8 -10 -17
-17 -16 -13 -17 -12 -4 4 13 16 21 21 21 13z"/>
<path d="M11994 4418 l-19 -21 28 18 c28 18 33 25 19 25 -5 0 -17 -10 -28 -22z"/>
<path d="M2337 4093 c-23 -6 -15 -33 28 -93 18 -25 49 -70 70 -100 36 -52 52
-74 162 -215 131 -168 361 -410 576 -607 115 -106 169 -152 347 -292 30 -24
116 -84 190 -133 640 -427 1271 -662 2065 -769 186 -26 226 -28 560 -28 340 0
372 1 570 28 459 61 855 169 1260 341 200 85 496 240 561 294 6 5 24 16 40 25
16 8 40 25 54 37 14 11 19 17 11 13 -10 -5 -12 -3 -7 5 5 7 14 10 21 7 16 -6
69 27 230 142 164 117 234 174 367 295 227 209 431 432 579 632 48 66 95 129
103 140 97 128 193 293 158 271 -6 -3 -13 -2 -17 3 -4 8 -766 6 -869 -2 -11
-1 -58 -47 -108 -107 -131 -155 -314 -336 -475 -472 -79 -66 -143 -122 -143
-124 0 -3 32 18 71 46 39 27 76 47 82 43 5 -3 7 -1 3 5 -3 6 -2 13 4 17 5 3
10 1 10 -6 0 -12 14 -4 16 9 2 17 17 42 25 42 5 0 8 -3 8 -7 -1 -5 -1 -15 0
-23 1 -13 3 -13 10 0 6 8 7 18 5 22 -3 4 0 8 5 8 14 0 56 48 56 63 1 7 7 11
15 9 7 -2 16 2 20 8 4 6 16 12 28 13 12 0 19 3 17 5 -6 7 19 30 28 25 7 -4 11
11 8 34 -1 7 7 9 19 6 12 -3 20 -2 19 3 -1 5 -1 16 0 24 1 11 3 12 9 3 9 -15
124 98 230 227 58 70 69 88 60 103 -8 16 -7 17 11 8 13 -7 145 -11 391 -11
l371 0 -57 -82 c-142 -205 -237 -326 -388 -493 -90 -99 -266 -279 -266 -271 0
3 -28 -23 -63 -57 -34 -34 -80 -75 -101 -92 -21 -16 -55 -46 -75 -65 -21 -19
-50 -44 -65 -55 -62 -44 -253 -197 -286 -228 -19 -18 -42 -44 -50 -56 -10 -14
-28 -23 -50 -26 -19 -2 -125 -49 -235 -104 -110 -56 -203 -101 -208 -101 -4 0
-31 -11 -60 -26 -110 -53 -336 -138 -345 -129 -1 1 35 17 80 35 110 44 354
161 399 193 21 14 46 28 57 31 11 4 26 14 34 24 12 16 11 16 -6 2 -18 -14 -19
-13 -14 1 4 9 1 23 -5 30 -10 11 -9 11 4 1 14 -10 18 -10 22 2 4 10 -4 19 -23
28 -21 9 -26 16 -19 24 7 8 6 15 -2 20 -8 5 -10 3 -4 -7 6 -10 5 -11 -3 -4 -6
6 -13 19 -15 31 -1 11 -13 34 -25 51 -12 17 -20 38 -17 45 3 8 -1 21 -9 28 -9
7 -13 16 -10 21 3 5 -1 12 -9 15 -8 3 -18 21 -21 40 -4 19 -11 34 -17 34 -6 0
-7 4 -4 10 3 5 -6 15 -20 22 -15 7 -24 17 -21 25 3 8 1 11 -4 8 -6 -3 -10 -1
-10 4 0 6 -9 11 -21 11 -11 0 -17 -4 -14 -10 3 -6 -4 -10 -16 -10 -12 0 -90
-29 -174 -65 -575 -243 -996 -345 -1590 -384 -81 -6 -141 -14 -143 -20 -2 -6
-16 -11 -30 -11 -15 0 -34 -5 -42 -11 -13 -9 -12 -10 3 -5 10 3 16 2 13 -3
-19 -30 -88 -7 -81 28 3 15 -4 18 -38 19 -23 1 -67 6 -97 12 -30 5 -98 14
-150 20 -306 36 -752 150 -1045 268 -102 41 -322 139 -340 152 -5 4 -55 31
-110 60 -132 70 -221 123 -392 236 -77 52 -146 94 -151 94 -5 0 -13 7 -16 16
-3 8 -10 12 -16 9 -6 -4 -8 -11 -5 -16 9 -13 -1 -11 -38 6 -30 15 -31 15 -9
-1 27 -20 29 -34 2 -27 -16 4 -19 2 -13 -12 4 -12 3 -16 -5 -11 -6 3 -16 -3
-22 -15 -9 -16 -9 -20 0 -14 9 6 9 3 1 -13 -8 -15 -8 -22 2 -25 7 -3 5 -6 -5
-6 -21 -1 -23 -12 -5 -30 10 -11 9 -12 -8 -3 -15 8 -22 6 -31 -6 -10 -13 -15
-14 -27 -4 -12 10 -16 9 -21 -4 -3 -9 -2 -22 4 -29 8 -9 7 -14 -2 -18 -9 -3
-6 -13 12 -33 14 -16 17 -22 8 -15 -10 7 -18 10 -18 5 0 -5 -4 -3 -9 5 -6 9
-15 11 -27 6 -11 -5 -22 -7 -26 -7 -13 3 -9 -16 8 -32 17 -18 11 -36 -13 -36
-9 0 -13 -6 -9 -15 7 -19 -54 -77 -69 -67 -29 19 51 -47 130 -107 136 -102
215 -156 380 -258 82 -51 143 -93 135 -93 -8 0 -44 18 -80 40 -36 22 -92 54
-125 71 -33 17 -100 58 -149 90 -48 33 -91 59 -94 59 -3 0 -21 12 -41 28 -20
15 -59 43 -87 62 -28 19 -66 48 -85 63 -19 15 -86 69 -149 119 -241 191 -512
486 -818 893 l-83 110 383 5 c211 3 389 9 396 13 6 5 12 12 12 16 0 8 -862 12
-893 4z m6593 -528 c-7 -9 -15 -13 -17 -11 -7 7 7 26 19 26 6 0 6 -6 -2 -15z
m-2635 -1315 c-4 -7 -23 -7 -65 0 -8 1 -4 5 10 9 28 8 62 3 55 -9z m-1271 -81
c5 -5 -5 -4 -24 1 -18 5 -35 12 -39 16 -9 9 53 -7 63 -17z m1321 -162 c237 -1
466 2 510 7 44 4 78 6 75 3 -3 -3 -30 -8 -60 -12 -30 -3 -82 -10 -115 -15
-220 -32 -581 -31 -872 1 -51 5 -103 12 -115 15 -13 3 -47 8 -76 11 -29 3 -54
9 -56 12 -3 4 59 0 137 -7 90 -9 300 -14 572 -15z"/>
<path d="M3405 4073 c4 -10 8 -26 10 -36 8 -38 265 -297 444 -447 497 -416
1110 -713 1721 -834 320 -64 504 -79 853 -73 238 4 310 9 457 31 758 115 1449
440 2001 939 166 150 346 355 363 413 6 19 2 20 -86 23 -59 1 -115 -3 -152
-13 -55 -15 -66 -23 -165 -125 -58 -60 -146 -144 -196 -186 -49 -43 -89 -83
-87 -87 1 -5 -2 -7 -7 -3 -6 3 -19 -3 -31 -15 -11 -11 -23 -21 -27 -22 -5 -1
-33 -20 -64 -42 -58 -43 -86 -81 -65 -89 16 -6 -23 -36 -56 -43 -15 -4 -26
-10 -23 -13 17 -28 -603 -336 -636 -316 -5 4 -9 2 -9 -3 0 -22 -280 -113 -517
-167 -132 -30 -144 -31 -136 -9 5 13 7 13 14 2 5 -8 9 -9 9 -2 0 14 38 25 45
14 3 -5 18 -5 34 0 34 10 71 29 56 30 -5 0 -3 5 5 10 11 7 5 8 -20 3 -19 -3
-37 -9 -40 -12 -3 -3 -16 -6 -30 -7 -14 -1 -38 -4 -55 -8 -16 -4 -54 -9 -82
-13 -29 -3 -53 -9 -53 -12 0 -4 -17 -6 -37 -4 l-38 2 40 -9 c57 -13 95 -13 75
0 -24 16 10 12 38 -4 22 -11 14 -14 -85 -28 -59 -9 -129 -15 -155 -14 -25 0
-44 -2 -42 -5 6 -11 -144 -19 -348 -19 -109 0 -198 4 -198 8 0 4 28 7 63 5 34
-1 57 0 50 3 -7 3 -9 12 -6 20 4 11 -6 14 -48 15 -30 0 -67 2 -84 4 -16 2 -82
9 -145 15 -146 14 -311 43 -538 95 -13 3 -30 2 -39 -3 -14 -8 -14 -10 1 -15 9
-4 16 -2 16 3 0 5 7 7 15 4 8 -4 12 -10 9 -15 -3 -5 0 -9 7 -9 7 0 10 -3 6 -6
-18 -18 -503 148 -491 168 3 4 -2 5 -10 2 -9 -3 -16 -1 -16 5 0 6 12 11 26 11
22 0 25 2 14 15 -15 18 -45 21 -34 3 5 -7 2 -9 -9 -5 -11 4 -14 2 -10 -9 3 -7
2 -14 -1 -14 -15 0 -216 96 -297 142 -48 26 -90 48 -94 48 -12 0 -85 54 -85
64 0 4 13 6 29 4 17 -2 28 -1 25 4 -3 4 -16 8 -28 8 -22 0 -51 22 -41 31 2 3
-5 11 -17 18 -11 7 -17 8 -13 2 3 -6 0 -11 -7 -11 -8 0 -6 -4 4 -11 10 -5 23
-19 28 -30 11 -19 9 -19 -24 3 -19 12 -32 26 -30 30 3 4 -2 5 -10 2 -9 -3 -16
-1 -16 5 0 6 -5 11 -11 11 -6 0 -24 10 -41 21 -25 18 -28 23 -15 31 18 10 67
-6 67 -22 0 -6 -6 -8 -12 -4 -10 6 -9 3 0 -8 12 -16 52 -21 52 -8 0 4 -51 43
-112 87 -144 103 -281 218 -420 352 -60 58 -121 110 -136 114 -15 5 -41 13
-58 18 -17 5 -79 9 -138 9 -99 0 -108 -1 -101 -17z m497 -231 c9 -7 22 -11 29
-6 8 5 11 2 6 -8 -3 -9 0 -22 6 -29 10 -11 -30 22 -78 65 -16 15 18 -5 37 -22z
m4788 -107 c-7 -9 -15 -13 -19 -10 -3 3 1 10 9 15 21 14 24 12 10 -5z m-4607
-50 c23 -32 7 -32 -23 0 -16 17 -19 25 -9 25 8 0 22 -12 32 -25z m4527 10 c-7
-8 -17 -15 -22 -15 -6 0 -5 7 2 15 7 8 17 15 22 15 6 0 5 -7 -2 -15z m1 -25
c-47 -43 -58 -48 -58 -26 0 8 5 12 11 10 6 -2 27 9 46 25 51 44 52 37 1 -9z
m-4481 -15 c-7 -9 -15 -13 -19 -10 -3 3 1 10 9 15 21 14 24 12 10 -5z m25 -25
c3 -5 1 -10 -4 -10 -6 0 -11 5 -11 10 0 6 2 10 4 10 3 0 8 -4 11 -10z m4371
-28 c-18 -16 -18 -16 -6 6 6 13 14 21 18 18 3 -4 -2 -14 -12 -24z m-66 -12
c-8 -5 -11 -12 -7 -16 3 -4 13 -1 22 6 9 7 18 11 20 8 3 -2 -14 -18 -38 -35
-54 -38 -79 -50 -48 -24 21 19 21 21 5 21 -15 0 -13 5 11 25 17 13 35 24 40
24 6 1 3 -3 -5 -9z m-2870 -606 c41 -2 80 -3 87 -4 6 0 11 -9 10 -20 -2 -24 4
-23 -72 -4 -33 9 -77 19 -98 23 -21 5 -41 12 -45 16 -4 4 4 4 18 0 14 -4 59
-9 100 -11z m1395 -24 c-3 -5 -10 -10 -16 -10 -5 0 -9 5 -9 10 0 6 7 10 16 10
8 0 12 -4 9 -10z m-1252 -17 c-7 -2 -19 -2 -25 0 -7 3 -2 5 12 5 14 0 19 -2
13 -5z m77 -3 c0 -5 19 -10 43 -10 23 0 49 -5 57 -10 10 -7 -2 -8 -40 -5 -98
9 -125 16 -109 26 19 12 49 11 49 -1z m303 -47 c-7 -2 -19 -2 -25 0 -7 3 -2 5
12 5 14 0 19 -2 13 -5z"/>
<path d="M8430 3560 c0 -5 5 -10 10 -10 6 0 10 5 10 10 0 6 -4 10 -10 10 -5 0
-10 -4 -10 -10z"/>
<path d="M2480 4034 c0 -15 130 -184 243 -314 135 -156 307 -332 307 -313 0 6
-6 14 -12 16 -10 4 -10 6 -1 6 7 1 10 7 7 15 -3 9 3 17 15 21 17 5 20 12 15
32 -5 18 -3 24 5 19 12 -8 15 6 4 18 -4 3 -8 13 -9 21 -2 11 3 12 21 3 30 -14
60 11 50 42 -4 14 -2 20 9 20 10 0 13 6 10 15 -8 20 5 19 28 -2 24 -21 36 -9
15 15 -19 21 -22 42 -6 42 6 0 9 6 6 14 -4 10 0 12 14 9 25 -7 51 15 44 38 -5
14 -1 16 15 12 14 -4 20 -1 20 11 0 15 2 15 28 -1 27 -17 27 -17 10 3 -22 25
-23 44 -4 44 8 0 16 6 19 13 5 13 -17 46 -92 138 -40 49 -48 55 -95 61 -65 8
-666 10 -666 2z"/>
<path d="M9420 3998 c-141 -178 -368 -415 -535 -558 -134 -115 -137 -118 -159
-154 l-18 -29 27 7 c23 6 26 4 20 -13 -4 -15 5 -30 40 -63 58 -54 70 -75 55
-93 -9 -11 -7 -12 9 -8 15 4 21 1 21 -11 0 -9 6 -16 14 -16 9 0 12 -7 9 -19
-3 -14 4 -22 26 -32 18 -8 29 -19 26 -26 -2 -7 0 -13 5 -13 6 0 10 -6 10 -14
0 -8 9 -18 20 -21 11 -3 20 -12 20 -20 0 -18 37 -26 50 -11 5 7 7 16 3 20 -4
4 -1 5 7 1 17 -6 154 95 301 221 221 190 411 398 619 679 132 179 143 195 135
203 -4 4 -156 8 -339 10 l-331 3 -35 -43z"/>
<path d="M8306 3501 c-11 -13 -14 -21 -7 -26 14 -8 51 3 51 16 0 12 -17 12
-25 -1 -3 -5 -11 -10 -17 -10 -5 0 0 9 13 20 13 10 19 19 13 20 -6 0 -19 -9
-28 -19z"/>
<path d="M8246 3465 c-11 -8 -16 -15 -10 -15 5 0 18 7 28 15 11 8 16 15 10 15
-5 0 -18 -7 -28 -15z"/>
<path d="M4042 3354 c10 -10 20 -16 22 -13 3 3 -5 11 -17 18 -21 13 -21 12 -5
-5z"/>
<path d="M4155 3280 c9 -14 95 -70 108 -70 9 0 -15 18 -87 64 -16 10 -25 13
-21 6z"/>
<path d="M4887 3229 c7 -7 15 -10 18 -7 3 3 -2 9 -12 12 -14 6 -15 5 -6 -5z"/>
<path d="M3620 3220 c0 -5 5 -10 11 -10 5 0 7 5 4 10 -3 6 -8 10 -11 10 -2 0
-4 -4 -4 -10z"/>
<path d="M5007 3178 c43 -18 55 -31 18 -22 -17 4 -27 4 -23 0 3 -4 23 -11 42
-16 28 -6 36 -5 36 6 0 15 -30 30 -78 39 -24 5 -23 4 5 -7z"/>
<path d="M7640 3168 c-58 -20 -85 -38 -59 -38 12 0 12 -2 -1 -10 -9 -6 -10
-10 -3 -10 6 0 15 5 18 10 4 6 11 8 16 4 6 -3 18 4 28 15 10 12 23 21 28 21 5
0 18 7 29 15 25 19 11 17 -56 -7z"/>
<path d="M4338 3164 c12 -9 22 -23 22 -30 0 -17 -5 -17 -32 -3 -13 7 -18 7
-14 1 4 -6 20 -18 37 -26 22 -11 28 -12 20 -2 -16 19 -4 25 32 15 17 -5 32 -8
33 -6 1 1 -25 17 -59 35 -34 18 -52 25 -39 16z"/>
<path d="M4960 3170 c0 -5 5 -10 11 -10 5 0 7 5 4 10 -3 6 -8 10 -11 10 -2 0
-4 -4 -4 -10z"/>
<path d="M7670 3150 c-9 -6 -10 -10 -3 -10 6 0 15 5 18 10 8 12 4 12 -15 0z"/>
<path d="M5161 3118 c8 -8 32 -18 54 -21 l40 -6 -30 13 c-16 7 -41 17 -55 21
-21 7 -22 6 -9 -7z"/>
<path d="M7500 3115 c-19 -7 -28 -14 -19 -14 9 -1 32 6 50 14 43 18 16 18 -31
0z"/>
<path d="M7430 3091 c-8 -5 -40 -14 -70 -21 -43 -10 -50 -15 -35 -21 28 -11
37 -11 30 0 -3 6 11 13 32 17 21 4 43 11 50 16 7 5 14 5 18 -2 3 -5 11 -10 16
-10 6 0 4 7 -5 15 -17 17 -16 17 -36 6z"/>
<path d="M4476 3076 c3 -8 12 -12 19 -10 7 3 16 1 20 -5 3 -6 -4 -15 -16 -19
l-23 -9 22 -5 c12 -4 20 -2 17 2 -3 5 -1 11 5 15 5 3 10 1 10 -5 0 -7 6 -10
13 -7 6 2 23 -1 37 -8 57 -28 70 -23 15 6 -95 51 -126 62 -119 45z"/>
<path d="M5270 3080 c8 -5 22 -9 30 -9 10 0 8 3 -5 9 -27 12 -43 12 -25 0z"/>
<path d="M5328 3063 c7 -3 16 -2 19 1 4 3 -2 6 -13 5 -11 0 -14 -3 -6 -6z"/>
<path d="M7408 3053 c7 -3 16 -2 19 1 4 3 -2 6 -13 5 -11 0 -14 -3 -6 -6z"/>
<path d="M7265 3040 c-16 -7 -17 -9 -3 -9 9 -1 20 4 23 9 7 11 7 11 -20 0z"/>
<path d="M7986 2980 c-43 -22 -81 -42 -85 -45 -12 -13 104 37 144 61 60 36 30
28 -59 -16z"/>
<path d="M4561 2996 c10 -9 69 -36 69 -32 0 6 -55 36 -66 36 -4 0 -5 -2 -3 -4z"/>
<path d="M4673 2982 c18 -20 18 -21 0 -32 -17 -11 -16 -11 2 -4 11 4 30 7 43
7 31 -1 28 4 -20 28 -42 21 -43 21 -25 1z"/>
<path d="M6701 2946 c10 -10 99 -15 99 -6 0 6 -23 10 -52 10 -28 0 -49 -2 -47
-4z"/>
<path d="M6574 2931 c-2 -2 -4 -9 -4 -15 0 -6 5 -4 10 4 8 12 10 12 10 1 0 -8
3 -12 6 -8 3 3 17 2 30 -3 14 -6 26 -6 29 0 4 6 21 10 38 11 31 0 31 1 8 10
-23 9 -118 9 -127 0z"/>
<path d="M4720 2920 c8 -5 20 -10 25 -10 6 0 3 5 -5 10 -8 5 -19 10 -25 10 -5
0 -3 -5 5 -10z"/>
<path d="M6250 2918 c0 -4 7 -8 15 -8 8 0 15 4 15 8 0 5 -7 9 -15 9 -8 0 -15
-4 -15 -9z"/>
<path d="M6290 2918 c0 -9 150 -7 155 2 2 4 -32 7 -75 6 -44 0 -80 -4 -80 -8z"/>
<path d="M4888 2893 c7 -3 16 -2 19 1 4 3 -2 6 -13 5 -11 0 -14 -3 -6 -6z"/>
<path d="M4910 2880 c-12 -8 -10 -10 8 -10 13 0 20 4 17 10 -7 12 -6 12 -25 0z"/>
<path d="M4960 2860 c8 -5 22 -9 30 -9 10 0 8 3 -5 9 -27 12 -43 12 -25 0z"/>
<path d="M7680 2853 c-8 -3 -39 -15 -68 -25 -29 -11 -52 -22 -50 -24 4 -4 138
43 146 51 7 6 -8 5 -28 -2z"/>
<path d="M5040 2836 c0 -6 124 -50 175 -63 22 -6 49 -14 60 -18 13 -5 17 -5
10 2 -8 8 -224 83 -240 83 -3 0 -5 -2 -5 -4z"/>
<path d="M4995 2810 c3 -4 14 -10 25 -13 11 -3 18 -2 15 3 -3 4 -14 10 -25 13
-11 3 -18 2 -15 -3z"/>
<path d="M5071 2790 c-19 -4 -16 -7 24 -18 27 -7 52 -9 57 -4 12 12 -51 30
-81 22z"/>
<path d="M7528 2793 c7 -3 16 -2 19 1 4 3 -2 6 -13 5 -11 0 -14 -3 -6 -6z"/>
<path d="M7465 2783 c-18 -5 -65 -33 -55 -33 3 0 28 9 55 20 46 18 46 24 0 13z"/>
<path d="M5168 2753 c7 -3 16 -2 19 1 4 3 -2 6 -13 5 -11 0 -14 -3 -6 -6z"/>
<path d="M5330 2735 l25 -16 -34 5 c-49 9 -30 -5 37 -26 71 -22 88 -22 96 -2
4 10 12 14 24 9 28 -11 144 -35 189 -39 24 -3 53 -8 65 -11 15 -5 20 -4 13 2
-5 6 -46 16 -90 23 -44 7 -123 23 -175 36 -52 12 -113 26 -135 29 -40 6 -40 6
-15 -10z m95 -31 c-9 -7 -25 -10 -35 -7 -32 9 -23 20 15 19 29 -1 32 -3 20
-12z"/>
<path d="M7358 2743 c6 -2 18 -2 25 0 6 3 1 5 -13 5 -14 0 -19 -2 -12 -5z"/>
<path d="M7318 2733 c7 -3 16 -2 19 1 4 3 -2 6 -13 5 -11 0 -14 -3 -6 -6z"/>
<path d="M7140 2698 c-25 -5 -49 -14 -55 -20 -7 -7 -2 -9 15 -4 14 4 47 12 74
16 27 5 51 12 54 15 8 8 -37 4 -88 -7z"/>
<path d="M5485 2670 c5 -9 138 -34 153 -29 6 2 0 9 -13 16 -19 8 -23 8 -18 0
4 -8 2 -8 -9 0 -8 7 -17 11 -20 8 -2 -3 -26 -1 -51 4 -26 4 -45 5 -42 1z"/>
<path d="M7168 2663 c7 -3 16 -2 19 1 4 3 -2 6 -13 5 -11 0 -14 -3 -6 -6z"/>
<path d="M7128 2653 c7 -3 16 -2 19 1 4 3 -2 6 -13 5 -11 0 -14 -3 -6 -6z"/>
</g>
</svg>
